<?xml version="1.0" encoding="utf-8"?>
<!-- Generator: Adobe Illustrator 16.0.0, SVG Export Plug-In . SVG Version: 6.00 Build 0)  -->
<!DOCTYPE svg PUBLIC "-//W3C//DTD SVG 1.1//EN" "http://www.w3.org/Graphics/SVG/1.1/DTD/svg11.dtd">
<svg version="1.1" id="Layer_1" xmlns="http://www.w3.org/2000/svg" xmlns:xlink="http://www.w3.org/1999/xlink" x="0px" y="0px"
	 width="2000px" height="300px" viewBox="0 0 2000 300" enable-background="new 0 0 2000 300" xml:space="preserve">
<title>Homepage-Ship</title>
<g>
	<path fill="#A8907B" d="M870.623,200.875c-0.283-0.004-0.509-0.236-0.505-0.518c0.002-0.141,0.061-0.273,0.163-0.369
		c18.816-17.281,35.553-35.621,49.699-54.505c11.317-15.101,21.066-30.61,28.906-46.052c13.361-26.315,16.702-43.597,16.736-43.768
		c0.101-0.264,0.396-0.396,0.66-0.295c0.206,0.079,0.338,0.28,0.328,0.5c-0.033,0.17-3.374,17.555-16.805,43.972
		c-7.874,15.51-17.657,31.053-29.008,46.222c-14.181,18.953-30.951,37.359-49.835,54.675
		C870.871,200.824,870.749,200.873,870.623,200.875z"/>
	<path fill="#A8907B" d="M899.597,219.385c-0.282,0-0.512-0.229-0.512-0.512c0-0.111,0.036-0.219,0.103-0.307
		c30.713-38.859,49.562-80.037,59.993-107.715c11.283-29.997,15.373-51.062,15.407-51.267c0.013-0.282,0.251-0.5,0.533-0.488
		s0.501,0.251,0.488,0.533c-0.002,0.055-0.014,0.109-0.033,0.16c-0.033,0.205-4.124,21.338-15.441,51.438
		c-10.43,27.747-29.349,69.026-60.163,107.988C899.876,219.32,899.74,219.383,899.597,219.385z"/>
	<path fill="#A8907B" d="M881.735,203.09c-0.282-0.003-0.509-0.234-0.505-0.518c0.002-0.14,0.061-0.273,0.164-0.368
		c16.857-15.786,32.05-33.262,45.335-52.153c10.133-14.43,18.951-29.74,26.35-45.745c12.169-26.52,15.203-44.585,15.237-44.756
		c0.047-0.282,0.313-0.473,0.596-0.426c0.283,0.047,0.474,0.314,0.427,0.597l0,0c-0.034,0.17-3.068,18.373-15.306,45.029
		c-7.428,16.053-16.28,31.409-26.451,45.881c-13.325,18.952-28.562,36.486-45.472,52.323
		C882.009,203.049,881.873,203.098,881.735,203.09z"/>
	<path fill="#A8907B" d="M895.643,209.908c-0.282,0-0.512-0.229-0.512-0.512c0-0.11,0.036-0.219,0.103-0.307
		c33.201-42.745,52.153-80.514,62.243-104.647c10.908-26.179,14.01-42.438,14.044-42.609c0.012-0.282,0.251-0.501,0.533-0.489
		s0.501,0.251,0.488,0.533c-0.003,0.055-0.014,0.109-0.033,0.16c-0.034,0.17-3.136,16.498-14.112,42.779
		c-10.09,24.202-29.11,62.073-62.379,104.92C895.922,209.844,895.786,209.906,895.643,209.908z"/>
	<path fill="#A8907B" d="M972.44,71.515h-0.068c-3.388-0.507-6.735-1.247-10.021-2.216c-0.272-0.084-0.425-0.375-0.341-0.647
		c0.085-0.273,0.375-0.426,0.647-0.341c3.241,0.954,6.544,1.683,9.886,2.182c0.282,0.028,0.488,0.28,0.46,0.562
		C972.975,71.337,972.723,71.543,972.44,71.515z"/>
	<path fill="#A8907B" d="M970.668,78.093h-0.034c-4.022-0.341-10.328-2.215-10.601-2.318c-0.273-0.084-0.426-0.375-0.341-0.647
		c0.084-0.273,0.374-0.426,0.647-0.341l0,0c0.068,0.034,6.477,1.943,10.396,2.25c0.292,0.019,0.513,0.271,0.494,0.562
		C971.212,77.891,970.96,78.112,970.668,78.093z"/>
	<path fill="#A8907B" d="M968.793,84.536h-0.068c-6.715-0.716-10.941-2.829-11.111-2.897c-0.255-0.132-0.354-0.445-0.223-0.699
		c0.133-0.254,0.445-0.353,0.699-0.221c0.034,0.034,4.227,2.113,10.737,2.795c0.282,0.009,0.504,0.246,0.494,0.528
		C969.312,84.324,969.076,84.545,968.793,84.536z"/>
	<path fill="#A8907B" d="M966.271,92.683h-0.136c-3.927-1.058-7.768-2.414-11.487-4.056c-0.249-0.134-0.341-0.445-0.207-0.693
		c0.126-0.232,0.407-0.33,0.649-0.227c3.666,1.615,7.449,2.948,11.317,3.988c0.265,0.099,0.398,0.393,0.3,0.658
		C966.638,92.538,966.468,92.666,966.271,92.683z"/>
	<path fill="#A8907B" d="M963.066,102.193h-0.17c-4.165-1.527-8.19-3.409-12.033-5.625c-0.244-0.141-0.328-0.454-0.188-0.699
		c0.142-0.245,0.454-0.329,0.699-0.188c3.779,2.163,7.736,3.999,11.828,5.488c0.282,0.038,0.48,0.297,0.443,0.58
		C963.608,102.032,963.349,102.23,963.066,102.193z"/>
	<path fill="#A8907B" d="M959.146,112.93h-0.102c-6.852-1.5-13.021-6.34-13.295-6.544c-0.226-0.179-0.264-0.507-0.085-0.733
		s0.507-0.264,0.733-0.085c0.068,0.034,6.237,4.909,12.851,6.34c0.282,0.028,0.488,0.28,0.46,0.562S959.429,112.958,959.146,112.93z
		"/>
	<path fill="#A8907B" d="M953.182,127.758h-0.171c-5.33-2.06-10.214-5.127-14.385-9.033c-0.169-0.226-0.123-0.546,0.103-0.716
		c0.182-0.136,0.432-0.136,0.613,0c4.063,3.802,8.82,6.788,14.01,8.794c0.248,0.136,0.339,0.446,0.203,0.694
		C953.479,127.638,953.34,127.735,953.182,127.758z"/>
	<path fill="#A8907B" d="M945.409,145.074l-0.238-0.068c-10.056-5.181-15.885-11.692-15.952-11.76
		c-0.161-0.232-0.103-0.551,0.13-0.711c0.189-0.131,0.443-0.119,0.619,0.029c0.068,0.068,5.761,6.442,15.646,11.521
		c0.264,0.101,0.396,0.396,0.295,0.66C945.831,144.952,945.63,145.084,945.409,145.074z"/>
	<path fill="#A8907B" d="M937.535,160.822h-0.17c-11.692-3.852-18.544-12.918-18.611-13.021c-0.169-0.226-0.122-0.546,0.104-0.715
		c0.226-0.168,0.545-0.123,0.714,0.102c0.068,0.102,6.749,8.896,18.135,12.646c0.264,0.102,0.396,0.396,0.294,0.66
		C937.926,160.688,937.742,160.817,937.535,160.822z"/>
	<path fill="#A8907B" d="M927.31,179.025h-0.171c-11.146-4.397-21.031-15.135-21.134-15.271c-0.16-0.232-0.102-0.551,0.131-0.711
		c0.189-0.131,0.442-0.119,0.619,0.029c0.103,0.103,9.852,10.703,20.759,14.998c0.246,0.139,0.333,0.451,0.194,0.697
		C927.625,178.914,927.477,179.01,927.31,179.025z"/>
	<path fill="#D98537" d="M1059.635,79.048c0,0,55.732,78.707,136.11,81.57l-1.262,0.579c0,0-67.254,4.568-135.734-81.434
		L1059.635,79.048z"/>
	<path fill="#ECD9AE" d="M1183.951,160.277c0,0-10.329,1.227-24.475,1.908c-14.828,0.682-33.849,0.75-49.495-1.908
		c-3.477-5.488-5.829-12.203-7.465-18.543c-1.74-6.909-2.87-13.958-3.374-21.066l0.988,0.92c0,0,11.896,21.577,37.223,29.656
		c25.327,8.078,43.461,9.033,43.461,9.033H1183.951z"/>
	<path fill="#4C2420" d="M882.826,68.276c-4.19,1.755-8.555,3.058-13.021,3.886c-7.397,1.364-12.441,2.114-13.533,3.852
		c-1.636,2.625,2.728,9.101,6.545,7.567c3.818-1.534,16.805-4.602,19.601-4.261c0.954-0.511,0.682-1.261,0.682-1.261
		s-3.136-1.943-3-4.602c0.137-2.659,3.034-4.363,3.034-4.363L882.826,68.276z"/>
	<path fill="#51312F" d="M856.271,79.048c0,0,5.353,0.205,6.579,4.534c1.228,4.329,1.704,6.204-2.658,5.215
		c-4.363-0.989-10.056-2.966-15.953-2.318c-5.897,0.647-7.67,1.636-8.352,1.432s1.978-2.386,7.158-3.068
		c5.182-0.682,12.511-3.307,12.953-3.852C856.442,80.445,856.271,79.048,856.271,79.048z"/>
	<rect x="881.905" y="61.289" fill="#D98537" width="2.488" height="119.288"/>
	<circle fill="#CC5B3D" cx="883.167" cy="59.652" r="2.591"/>
	<path fill="#4C2420" d="M1058.612,81.434c0,0-3.783-1.398-8.931,1.363c-5.146,2.761-2.283,4.875-6.613,6.34
		c-4.328,1.466-11.896,1.807-13.157,0.852c-1.261-0.955-2.692-2.693-4.977-1.159c-2.284,1.534-2.182,2.011-1.432,2.079
		s2.353-1.227,3.579-0.239c1.228,0.989,8.999,7.874,17.044,4.738c4.227-1.636,3.749-5.079,14.282-2.863
		c0.477-0.648-0.171-1.432-0.171-1.432s-3.954-4.977,0.409-8.692C1058.817,82.082,1058.612,81.434,1058.612,81.434z"/>
	<rect x="1057.556" y="78.06" fill="#D98537" width="2.079" height="135.175"/>
	<circle fill="#CC5B3D" cx="1058.578" cy="76.696" r="2.147"/>
	<path fill="#4C2420" d="M971.759,10.499c0,0-8.112-6.988-22.565-4.261s-17.828,13.294-17.828,13.294l5.353,16.805
		c0,0,9.203-9.102,17.827-9.102s14.862,2.489,17.214,3.988c2.353,1.5,0-2.284,0-2.284s-6.987-11.249,0.171-17.384
		C972.475,11.351,971.759,10.499,971.759,10.499z"/>
	<rect x="970.805" y="5.556" fill="#D98537" width="3.272" height="214.353"/>
	<path fill="#964C38" d="M977.689,218.668c-0.817-3.203-2.761-3.92-5.249-3.92s-4.397,0.717-5.249,3.92
		c-0.853,3.205-1.057,8.727-1.057,8.727h12.578C978.713,227.395,978.508,221.873,977.689,218.668z"/>
	<circle fill="#CC5B3D" cx="972.44" cy="3.409" r="3.409"/>
	<path fill="#ECD9AE" d="M1014.811,70.867c-0.16,0.636-0.389,1.253-0.682,1.84l0,0c-2.113,4.5-8.794,12.851-18.85,8.692
		c-6.647,17.793-27.713,18.066-36.644,8.454c-13.261,8.01-21.135,0.75-22.873-1.159l-0.375-0.409c0,0,0-0.137,0.409-0.307
		c0.705-0.249,1.438-0.41,2.182-0.477l2.863,0.068c9.306-0.034,14.146-2.284,16.26-3.647c0.483-0.299,0.93-0.653,1.329-1.057
		l2.488-0.852c0.667,0.277,1.365,0.472,2.079,0.579c2.182,0.375,6.136,0.58,12.17-0.852c6.033-1.432,10.839-3.613,13.021-4.806l0,0
		c0.587-0.322,1.155-0.675,1.705-1.057l2.488-0.375l1.295,0.205c9.136,1.125,16.601-3.102,18.236-4.125l0.308-0.205
		C1012.221,71.378,1014.129,69.947,1014.811,70.867z"/>
	<g opacity="0.6">
		<path fill="#DBC6A1" d="M1014.129,72.708c-2.113,4.5-8.794,12.851-18.85,8.692c-6.647,17.793-27.713,18.066-36.644,8.454
			c-13.261,8.01-21.135,0.75-22.873-1.159l-3.238,0.716c0.341-0.818,1.193-1.534,3.307-1.466h0.478l0.75,0.409
			c6.656,3.695,14.816,3.38,21.168-0.818c0.407-0.272,0.931-0.298,1.363-0.068c2.522,1.33,11.146,5.59,16.123,4.84
			c5.692-0.886,11.896-4.022,18.168-12.783c0.328-0.467,0.918-0.673,1.466-0.511C1008.198,82.899,1013.992,72.946,1014.129,72.708z"
			/>
	</g>
	<polygon fill="#D98537" points="1017.913,70.117 1016.106,70.526 1014.776,70.833 1011.913,71.48 993.711,75.605 988.223,76.832 
		988.223,76.832 963.032,82.525 957.102,83.854 940.876,87.501 937.024,88.388 935.729,88.66 932.49,89.376 932.457,89.41 
		930.65,89.819 930.241,87.911 932.048,87.536 1015.697,68.651 1017.504,68.242 	"/>
	<circle fill="#CC5B3D" cx="930.513" cy="88.799" r="2.079"/>
	<circle fill="#CC5B3D" cx="1017.711" cy="69.067" r="2.079"/>
	<path fill="#ECD9AE" d="M932.149,125.645c0,0,24.339,32.314,4.942,69.298c25.396-12.782,62.209-12.407,81.81-2.896
		c24.202-49.666,0-84.911,0-84.911h-1.125c0,0-2.216,6.885-8.521,7.874c-6.307,0.988-10.465-3.716-10.465-3.716l-1.022,0.171
		c0,0-1.5,5.624-9.067,7.124s-12.237-3-12.237-3l-1.091,0.272c0,0-1.022,5.386-10.362,7.636c-9.34,2.25-11.283-2.761-11.283-2.761
		l-1.193,0.341c0,0-1.022,4.261-7.84,5.556s-10.635-1.432-10.635-1.432L932.149,125.645z"/>
	<polygon fill="#D98537" points="1023.23,106.147 929.014,126.804 928.604,124.895 1022.821,104.272 	"/>
	<circle fill="#CC5B3D" cx="927.29" cy="126.128" r="2.079"/>
	<circle fill="#CC5B3D" cx="1023.049" cy="105.114" r="2.079"/>
	<g opacity="0.5">
		<path fill="#E5D2AC" d="M1027.594,167.299c-1.875,8.559-4.782,16.856-8.658,24.713c-19.601-9.51-56.448-9.885-81.809,2.898
			c2.864-5.432,4.953-11.237,6.203-17.248c1.124-5.504,1.502-11.133,1.125-16.737c9.681,3.171,23.997,5.931,42.916,4.363
			c24.781-2.046,36.813-13.124,42.233-20.759C1029.892,152.174,1029.217,159.824,1027.594,167.299z"/>
	</g>
	<path fill="#DBC6A1" d="M1027.594,167.299c-1.875,8.559-4.782,16.856-8.658,24.713c-19.601-9.51-56.448-9.885-81.809,2.898
		c2.864-5.432,4.953-11.237,6.203-17.248c7.567,1.636,20.589,3.067,41.928,2.078C1011.437,178.582,1022.787,171.9,1027.594,167.299z
		"/>
	<path fill="#4C2420" d="M828.832,108.806c0,0-11.794,2.352-16.771,10.431c-1.022,1.807,5.216-0.17,7.159,2.386
		c1.363-2.761,4.942-4.227,7.021-2.795c2.079,1.432,4.567,1.466,5.113,0.887c0.545-0.58-0.512-0.853-0.512-0.853
		s-3.033,0.137-3.954-2.693c-0.92-2.829,1.33-6.306,2.147-6.51L828.832,108.806z"/>
	<path fill="#51312F" d="M815.708,120.225c0,0,2.932-0.852,4.125,2.147s-1.057,4.192-5.488,4.772
		c-4.431,0.58-13.941,4.125-16.361,7.806c-0.921,0.341,0.852-3.307,2.863-4.84c2.011-1.534,9.544-4.977,11.657-5.931
		C814.617,123.225,817.754,120.668,815.708,120.225z"/>
	<polygon fill="#9B633A" points="828.764,105.329 836.194,134.917 834.32,134.917 827.332,105.329 	"/>
	<circle fill="#B8592B" cx="827.81" cy="104.238" r="2.488"/>
	<circle fill="#C7663C" cx="827.81" cy="103.829" r="1.738"/>
	<path fill="#ECD9AE" d="M959.556,18.407c0.27,0.162,0.36,0.51,0.204,0.784l-0.272,0.511c-0.162,0.27-0.511,0.361-0.784,0.205
		l-0.92-0.511h-0.034l-3.92,2.045l2.591,0.647h0.034l0.75-0.716c0.235-0.216,0.601-0.201,0.817,0.034l0.409,0.443
		c0.216,0.235,0.201,0.602-0.034,0.818l-0.682,0.613l0.307,0.887c0.094,0.291-0.056,0.604-0.341,0.716l-0.545,0.204
		c-0.291,0.093-0.604-0.056-0.716-0.341l-0.341-0.988l0,0l-4.397-1.193l-3.886,2.045v0.034l-0.103,1.022
		c-0.035,0.307-0.306,0.532-0.613,0.511l-0.58-0.068c-0.307-0.036-0.531-0.306-0.511-0.614l0.068-0.92l-0.818-0.443
		c-0.271-0.163-0.36-0.511-0.204-0.784l0.272-0.511c0.162-0.27,0.511-0.361,0.784-0.205l0.92,0.511h0.034l2.284-1.193l-4.228-1.057
		h-0.034l-0.75,0.716c-0.235,0.216-0.602,0.201-0.817-0.034l-0.409-0.443c-0.217-0.235-0.201-0.601,0.034-0.818l0.682-0.614
		l-0.307-0.886c-0.09-0.301,0.076-0.618,0.375-0.716l0.545-0.205c0.301-0.089,0.618,0.077,0.716,0.375l0.341,0.989l0,0l5.216,1.295
		l0.75,0.204l0.783-0.409l4.738-2.488l0,0l0.103-1.023c0.035-0.307,0.306-0.531,0.613-0.511l0.58,0.068
		c0.307,0.036,0.531,0.305,0.511,0.613l-0.068,0.92L959.556,18.407z"/>
	<path fill="#ECD9AE" d="M945.58,13.669c-2.488-7.295,10.328-8.794,9.749-1.5c-0.068,1.057-0.512,1.5-0.171,2.216
		c0.853,1.704-1.942,1.807-1.704,2.488c0.512,1.261-0.818,1.67-2.147,1.841s-2.557,0.307-2.591-1.159
		c0-0.784-2.557,0.137-2.284-1.772C946.568,14.964,945.955,14.794,945.58,13.669z M953.829,14.351
		c0.034-0.682-1.193-1.875-1.67-1.329c-0.392,0.563-0.444,1.295-0.137,1.909c0.272,0.477,1.738-0.068,1.772-0.545L953.829,14.351z
		 M951.716,17.009c0.272-0.238-0.478-1.261-0.853-1.193s-0.818,1.159-0.511,1.363C950.809,17.336,951.312,17.273,951.716,17.009z
		 M949.534,15.271c0.132-0.675-0.116-1.369-0.647-1.807c-0.614-0.375-1.5,1.125-1.262,1.738
		C947.863,15.816,949.33,15.816,949.534,15.271z"/>
	<path fill="#ECD9AE" d="M1084.825,124.35c0,0,11.283,19.838,1.057,43.802c-19.531-6.136-40.223-1.022-48.642,6.477
		c4.192-22.259-1.943-38.246-1.943-38.246l1.159-0.443c0,0,3.067,2.318,8.045,1.023c4.977-1.295,4.533-4.159,4.533-4.159
		l1.466-0.341c2.651,1.292,5.686,1.559,8.521,0.75c4.875-1.329,6.307-4.227,6.307-4.227l1.533-0.682c0,0,3.818,2.182,10.465,0.647
		c6.647-1.534,6.067-3.92,6.067-3.92L1084.825,124.35z"/>
	<g opacity="0.5">
		<path fill="#E5D2AC" d="M1089.938,152.301c-0.227,2.434-0.625,4.85-1.192,7.227c-0.709,2.951-1.667,5.836-2.864,8.624
			c-19.531-6.136-40.223-1.022-48.642,6.477c0.992-5.248,1.482-10.578,1.466-15.919c0-1.84-0.068-3.613-0.171-5.249
			C1062.021,165.595,1083.326,155.948,1089.938,152.301z"/>
	</g>
	<path fill="#DBC6A1" d="M1088.746,159.527c-0.709,2.951-1.667,5.836-2.864,8.624c-19.531-6.136-40.223-1.022-48.642,6.477
		c0.992-5.248,1.482-10.578,1.466-15.919c4.192,1.603,11.146,3.512,21.509,4.158
		C1074.327,163.754,1084.416,160.993,1088.746,159.527z"/>
	<polygon fill="#D98537" points="1090.62,123.838 1033.934,136.825 1033.593,135.394 1090.313,122.44 	"/>
	<circle fill="#CC5B3D" cx="1032.604" cy="136.248" r="1.568"/>
	<circle fill="#CC5B3D" cx="1090.495" cy="122.987" r="1.568"/>
	<path fill="#ECD9AE" d="M1078.826,101.238c0,0-3.579,5.079-13.771,2.693c-0.55,0.142-1.078,0.36-1.567,0.648
		c0,0-1.159,3.17-5.182,4.125s-8.999-1.057-8.999-1.057l-1.397,0.511c0,0-1.228,3.136-5.999,4.227
		c-4.772,1.091-7.807-1.432-7.807-1.432l-1.261,0.512c0,0,2.011,12.544,17.657,4.738c6.271,3.613,14.419,0.682,16.226-4.295
		c4.09,1.5,13.055-2.693,13.907-11.283C1079.849,100.42,1078.826,101.238,1078.826,101.238z"/>
	<path fill="#DBC6A1" d="M1079.985,103.454c-2.25,6.681-9.681,9.817-13.294,8.488c-1.841,4.942-9.987,7.908-16.226,4.295
		c-8.761,4.363-13.26,2.352-15.51-0.273l0,0c4.397,1.909,9.237,1.364,14.419-1.977c0.49-0.306,1.094-0.369,1.637-0.171
		c4.703,1.568,10.532-0.272,14.077-3.442c0.419-0.371,0.987-0.522,1.534-0.409C1073.338,111.158,1079.78,103.693,1079.985,103.454z"
		/>
	<polygon fill="#D98537" points="1084.758,100.386 1031.718,112.351 1031.411,110.919 1084.45,98.955 	"/>
	<circle fill="#CC5B3D" cx="1030.413" cy="111.811" r="1.568"/>
	<circle fill="#CC5B3D" cx="1084.604" cy="99.524" r="1.568"/>
	<path fill="#ECD9AE" d="M920.936,89.819c-2.796,8.317-8.999,12.101-17.76,12.714c-2.045,16.362-18.748,22.941-32.928,18.407
		c-6.034,10.294-15.066,9.476-20.964,7.499c-2.06-0.692-4.028-1.631-5.863-2.795c0,0,0.341-1.193,1.125-1.5
		c15.953,0.647,21.475-14.18,21.475-14.18s0-0.682,1.296-1.534c20.725,1.125,25.565-16.089,25.565-16.089s0.613-1.602,1.977-1.705
		c23.963,1.807,25.735-16.941,25.735-16.941s0.614-2.045,1.773-1.841C922.98,79.354,922.469,85.251,920.936,89.819z"/>
	<g opacity="0.6">
		<path fill="#DBC6A1" d="M920.936,89.819L920.936,89.819c-2.796,8.317-8.999,12.101-17.76,12.714
			c-2.045,16.362-18.748,22.941-32.928,18.407c-6.034,10.294-15.066,9.476-20.964,7.499c11.146,0.205,17.351-7.635,19.226-10.465
			c13.736,4.772,27.746-7.567,32.348-17.964C912.038,101.477,920.936,89.819,920.936,89.819z"/>
	</g>
	<polygon fill="#D98537" points="924.31,71.14 922.775,72.162 921.65,72.912 919.196,74.514 895.268,91.456 890.563,94.558 
		890.563,94.558 869.021,108.771 863.941,112.078 850.034,121.248 846.762,123.429 845.637,124.145 842.876,125.986 
		842.842,125.986 841.308,127.008 840.251,125.406 841.785,124.384 921.719,70.56 923.287,69.538 	"/>
	<circle fill="#CC5B3D" cx="840.847" cy="126.08" r="2.079"/>
	<circle fill="#CC5B3D" cx="923.798" cy="70.185" r="2.079"/>
	<g opacity="0.45">
		<path fill="#DBC6A1" d="M1159.477,162.186c-14.828,0.682-33.849,0.75-49.495-1.908c-3.477-5.488-5.829-12.203-7.465-18.543
			C1110.05,151.176,1126.105,162.596,1159.477,162.186z"/>
	</g>
	<path fill="#A8907B" d="M816.186,186.49c-0.17-0.103-0.341,0.068-0.307,0.238c0.046,0.163,0.103,0.322,0.17,0.478
		c0.071,0.222,0.071,0.46,0,0.682c-0.121,0.407-0.496,0.685-0.92,0.682c-0.395,0.02-0.73-0.285-0.75-0.68c0-0.001,0-0.001,0-0.002
		c-0.007-0.332,0.179-0.638,0.478-0.784c0.058-0.049,0.063-0.135,0.015-0.191c-0.021-0.025-0.051-0.042-0.083-0.047
		c-0.478,0.034-0.75,0.512-0.784,0.954c-0.042,0.549,0.344,1.038,0.887,1.125c0.585,0.118,1.179-0.158,1.466-0.682
		C816.663,187.717,816.663,186.831,816.186,186.49z"/>
	<path fill="#A8907B" d="M819.287,152.744c0,0,0.205,2.352-1.022,2.42c1.159,0.955,0.103,2.25-0.272,2.625
		c1.022,1.091,0.409,1.875-0.238,2.522c-0.648,0.647-2.42-0.853-1.023-2.796c-0.519-0.848-0.312-1.951,0.478-2.557
		c-0.886-0.749,0.137-2.727,0.341-3.067C817.754,151.551,819.287,152.744,819.287,152.744z"/>
	<path fill="#B97943" d="M833.161,153.596l-16.362-2.999c-0.388-0.077-0.764,0.176-0.84,0.563c-0.006,0.027-0.01,0.056-0.012,0.084
		v0.341c-0.042,0.373,0.211,0.715,0.579,0.784l15.919,3.477L833.161,153.596z"/>
	<path fill="#895634" d="M818.879,162.254c0,0,0.067-2.011-1.466-2.182c-1.534-0.17-1.5,2.182-1.5,2.182H818.879z"/>
	<path fill="#F9DA78" d="M810.084,168.254c0,0,0.068,12.34,2.182,17.418c1.738,0.682,6.92,0.818,6.92,0.818s4.84-9.102,5.692-16.293
		C820.958,165.22,810.084,168.254,810.084,168.254z"/>
	<path fill="#FBB040" d="M817.038,174.9c-2.182-0.716-5.42,7.021-3.341,11.01c1.125,0.273,4.227,0.41,4.227,0.41
		S822.253,176.605,817.038,174.9z"/>
	<path fill="#895634" d="M824.946,168.492c0.204-2.283-1.943-6.238-6.579-6.715c-4.636-0.478-7.533,2.932-7.806,5.215
		c-1.329,0.341-2.216,1.193-2.113,1.5c0.102,0.307,6.783,1.262,9.066,1.5c2.284,0.238,9.033,0.647,9.17,0.375
		C826.82,170.094,826.139,169.105,824.946,168.492z"/>
	<path fill="#895634" d="M820.071,186.66c-0.103-0.647-2.591-0.92-4.158-1.09l0,0c-1.568-0.171-4.057-0.375-4.295,0.204
		c-0.239,0.579,0.511,1.159,4.124,1.534S820.174,187.274,820.071,186.66z"/>
	<path fill="#895634" d="M813.766,168.833c0,0-0.784,11.215,0.682,16.806c0.341,1.363,0.887,0.307,0.887,0.307
		s-0.887-9.954-0.273-16.771C814.686,168.049,813.766,168.833,813.766,168.833z"/>
	<path fill="#895634" d="M810.8,168.629c0,0-0.171,11.146,1.807,16.771c0.034,0.511-0.784,0.204-0.784,0.204
		c-1.803-5.586-2.588-11.451-2.317-17.316C809.709,167.912,810.8,168.629,810.8,168.629z"/>
	<path fill="#895634" d="M821.23,169.617c0,0-1.534,11.112-4.091,16.293c-0.613,1.262-0.92,0.137-0.92,0.137
		s2.863-9.544,3.647-16.361C820.446,168.629,821.23,169.617,821.23,169.617z"/>
	<path fill="#895634" d="M824.162,170.026c0,0-2.113,10.976-5.182,16.055c-0.136,0.478,0.75,0.341,0.75,0.341
		c2.916-5.105,4.891-10.693,5.829-16.498C825.389,169.549,824.162,170.026,824.162,170.026z"/>
	<path fill="#895634" d="M810.084,173.196c0,0,7.09,1.432,13.84,1.432c0.17,0.375-0.103,1.125-0.103,1.125
		s-8.556,0.171-13.566-1.397C810.165,173.975,810.107,173.587,810.084,173.196z"/>
	<path fill="#895634" d="M810.834,180.082c0,0,5.59,1.261,10.941,1.125c0.045,0.377,0.011,0.761-0.102,1.125
		c0,0-6.783,0.375-10.737-1.092C810.875,180.857,810.842,180.471,810.834,180.082z"/>
	<path fill="#9B6445" d="M818.845,162.561c-2.318-0.613-5.692,0.478-6.579,3.103c-0.887,2.624,10.806,3.579,10.806,1.296
		C823.071,164.674,821.196,163.175,818.845,162.561z"/>
	<polygon fill="#895634" points="837.456,142.007 837.456,154.619 840.388,155.471 840.933,143.847 	"/>
	<polygon fill="#895634" points="852.113,149.097 852.113,161.743 855.045,162.561 855.59,150.972 	"/>
	<polygon fill="#895634" points="866.771,156.221 866.771,168.833 869.702,169.651 870.248,158.062 	"/>
	<polygon fill="#895634" points="881.428,163.379 881.428,175.991 884.359,176.81 884.905,165.22 	"/>
	<polygon fill="#895634" points="896.086,170.469 896.086,183.082 898.983,183.934 899.528,172.311 	"/>
	<polygon fill="#895634" points="908.459,177.764 908.459,190.41 911.391,191.229 911.937,179.639 	"/>
	<path fill="#A36133" d="M1082.746,203.022c0,0-7.703,19.19-22.906,21.475c4.533-8.931,10.396-19.122,10.396-19.122
		L1082.746,203.022z"/>
	<path fill="#B2703F" d="M1098.835,190.069c-1.556,5.349-5.418,9.724-10.532,11.931c-8.658,3.75-20.623,6.203-20.623,6.203
		l6.17-10.736L1098.835,190.069z"/>
	<polygon fill="#9B633A" points="952.022,210.658 952.636,223.713 949.807,222.588 949.637,209.737 	"/>
	<polygon fill="#9B633A" points="917.424,205.886 918.038,218.941 915.209,217.816 915.038,204.965 	"/>
	<polygon fill="#9B633A" points="940.535,208.783 940.979,223.986 938.149,222.725 938.149,207.727 	"/>
	<polygon fill="#9B633A" points="928.911,207.76 929.32,222.963 926.491,221.702 926.525,206.703 	"/>
	<path fill="#AA513C" d="M909.141,201.727c0,0,39.541,5.795,45.745,6.647s4.533,3.92,0,3.238s-44.415-5.966-44.415-5.966
		L909.141,201.727z"/>
	<polygon fill="#9B633A" points="1075.11,180.525 1073.44,193.443 1075.384,192.898 1077.564,179.775 	"/>
	<polygon fill="#9B633A" points="1066.248,182.809 1064.578,195.728 1066.521,195.148 1068.702,182.059 	"/>
	<polygon fill="#9B633A" points="1057.386,185.059 1055.715,198.012 1057.624,197.432 1059.84,184.343 	"/>
	<polygon fill="#9B633A" points="1048.488,187.342 1046.853,200.295 1048.762,199.716 1050.978,186.627 	"/>
	<polygon fill="#9B633A" points="1039.626,189.626 1037.99,202.579 1039.898,202 1042.08,188.91 	"/>
	<path fill="#B97943" d="M850.954,208.715c-3.817-1.193-9.953-4.261-11.487-5.045c-1.533-0.783-1.977-3.646-2.045-8.965
		c-0.068-5.317,0-33.27,0-33.27l73.832,33.064c0,0-3.033,20.18,13.295,27.509C906.346,221.123,867.351,213.93,850.954,208.715z"/>
	<g opacity="0.5">
		<path fill="#895634" d="M911.288,194.5c-0.168,1.289-0.247,2.588-0.238,3.887l-73.628-33.234c0-2.285,0-3.717,0-3.717
			L911.288,194.5z"/>
	</g>
	<g opacity="0.15">
		<path fill="#CC824A" d="M837.456,161.436l20.69,9.238l-0.272,13.09c-8.521-3.512-15.714-6.647-20.418-8.692
			C837.422,167.811,837.456,161.436,837.456,161.436z"/>
	</g>
	<g opacity="0.15">
		<path fill="#CC824A" d="M911.459,203.602c-3.579-1.09-7.261-2.283-11.01-3.578l0.341-10.261l10.464,4.704
			C910.906,197.507,910.975,200.58,911.459,203.602z"/>
	</g>
	<g opacity="0.1">
		<path fill="#CC824A" d="M837.422,190.001c5.249,2.114,10.602,4.057,15.919,5.897l-0.171,13.498l-2.182-0.682
			c-3.817-1.193-9.953-4.261-11.487-5.045c-1.534-0.783-1.977-3.646-2.045-8.965C837.456,193.751,837.422,192.08,837.422,190.001z"
			/>
	</g>
	<g opacity="0.08">
		<path fill="#CC824A" d="M911.118,220.748c-7.056-0.887-15.066-2.148-23.009-3.58v-10.907c8.727,2.249,16.328,3.988,21.986,5.216
			L911.118,220.748z"/>
	</g>
	<g opacity="0.09">
		<path fill="#CC824A" d="M914.254,212.362c-8.487-1.738-24.781-5.352-43.154-10.806l0.988-11.998
			c12.749,5.045,26.793,10.226,39.371,14.077C911.9,206.68,912.845,209.629,914.254,212.362z"/>
	</g>
	<path fill="#B97943" d="M1076.917,192.012c0,0-24.099,64.084-62.958,88.286s-152.028,44.654-164.3-71.924
		c41.586,10.907,105.431,22.6,177.935,10.329c3.988-6.034,9.306-16.941,9.306-16.941S1058.033,197.807,1076.917,192.012z"/>
	<g opacity="0.09">
		<path fill="#CC824A" d="M1070.577,206.703c-2.795,5.966-6.477,13.328-10.976,21.135c-5.659,1.158-11.227,2.204-16.703,3.136
			l-8.862,1.432c-7.795,1.204-15.419,2.204-22.873,3c-12.203,1.329-23.895,2.147-35.041,2.591c-8.59,0.34-16.805,0.408-24.679,0.34
			c-7.875-0.067-15.476-0.375-22.634-0.817c-9.579-0.579-18.441-1.397-26.554-2.386c-6.954-0.853-13.362-1.773-19.123-2.762
			c-13.976-2.352-24.372-4.908-30.61-6.613c-1.244-5.738-2.166-11.542-2.761-17.384c41.586,10.907,105.431,22.6,177.934,10.329
			C1043.717,216.385,1056.396,212.635,1070.577,206.703z"/>
	</g>
	<path fill="#B97943" d="M883.303,232.405c0-0.136-0.238-0.204-0.272-0.034c-0.406,2.754-0.601,5.534-0.579,8.317
		c0,0.151,0.122,0.272,0.272,0.272s0.272-0.121,0.272-0.272C883.312,237.939,883.414,235.17,883.303,232.405z"/>
	<path fill="#B97943" d="M929.082,238.029c0-0.094-0.076-0.17-0.171-0.17c-0.094,0-0.17,0.076-0.17,0.17
		c-0.171,2.353-0.512,4.909-0.272,7.227c0,0.137,0.238,0.205,0.272,0.035C929.219,243.006,929.082,240.382,929.082,238.029z"/>
	<path fill="#B97943" d="M950.762,228.451c-0.034-0.137-0.239-0.102-0.205,0.034c0.064,3.126,0.315,6.244,0.75,9.34
		c0.034,0.204,0.341,0.136,0.341-0.034C951.538,234.663,951.242,231.545,950.762,228.451z"/>
	<path fill="#B97943" d="M976.326,238.814c0-0.076-0.062-0.137-0.137-0.137c-0.074,0.001-0.135,0.062-0.136,0.137
		c-0.17,2.078-0.341,4.431,0,6.51c0.041,0.085,0.144,0.12,0.228,0.079c0.035-0.017,0.062-0.044,0.079-0.079
		C976.701,243.245,976.497,240.893,976.326,238.814z"/>
	<path fill="#B97943" d="M1010.822,226.338c-0.033-0.102-0.204-0.068-0.204,0.034c-0.171,2.829,0.136,5.862,0.375,8.692
		c0,0.094,0.076,0.17,0.17,0.17c0.095,0,0.171-0.076,0.171-0.17C1011.334,232.201,1011.334,229.167,1010.822,226.338z"/>
	<path fill="#B97943" d="M1034.036,232.883c-0.375,2.42-0.818,4.908-1.057,7.363c-0.034,0.238,0.341,0.271,0.375,0.067
		c0.57-2.413,0.867-4.883,0.886-7.362C1034.274,232.78,1034.07,232.78,1034.036,232.883z"/>
	<path fill="#B97943" d="M1042.012,221.396c-0.009-0.057-0.062-0.095-0.119-0.085c-0.057,0.009-0.094,0.062-0.085,0.119
		c0.161,2.963,0.514,5.911,1.057,8.828c0.01,0.075,0.078,0.129,0.153,0.119s0.129-0.078,0.119-0.153l0,0
		C1042.954,227.26,1042.578,224.311,1042.012,221.396z"/>
	<path fill="#B97943" d="M903.039,226.065c-0.541,2.646-0.759,5.347-0.647,8.044c0.001,0.076,0.062,0.137,0.138,0.136
		c0.074,0,0.135-0.061,0.135-0.136c0.137-2.692,0.375-5.352,0.546-8.01c-0.02-0.053-0.079-0.08-0.132-0.061
		C903.063,226.045,903.05,226.054,903.039,226.065z"/>
	<g opacity="0.09">
		<path fill="#CC824A" d="M951.375,238.336c-7.908-0.102-15.476-0.375-22.634-0.817c-9.579-0.579-18.441-1.397-26.554-2.386
			l1.329-13.124l46.699,2.011L951.375,238.336z"/>
	</g>
	<g opacity="0.09">
		<path fill="#CC824A" d="M1042.864,230.974l-8.862,1.432c-7.795,1.204-15.419,2.204-22.873,3l-0.682-11.692l30.815-6.612
			L1042.864,230.974z"/>
	</g>
	<g opacity="0.15">
		<path fill="#CC824A" d="M1059.567,227.838c-2.693,4.67-5.659,9.51-8.897,14.316h-0.136c-15.612,3.647-50.381,9.783-100.897,7.533
			c-4.932-0.227-9.681-0.488-14.249-0.784l0,0l-6.646-0.478c-18.51-1.432-33.985-3.442-46.427-5.556
			c-11.521-1.942-20.452-3.92-26.758-5.487c-1.182-3.682-2.216-7.557-3.103-11.625c6.272,1.705,16.669,4.262,30.61,6.613
			c15.123,2.529,30.37,4.248,45.677,5.147c14.282,0.853,30.133,1.159,47.347,0.478c19.406-0.758,38.754-2.624,57.948-5.591
			C1042.354,231.133,1050.863,229.61,1059.567,227.838z"/>
	</g>
	<g opacity="0.09">
		<path fill="#CC824A" d="M883.064,232.371l-0.75,10.533c-11.521-1.943-20.452-3.92-26.758-5.488
			c-1.182-3.682-2.216-7.556-3.103-11.623C858.692,227.497,869.089,230.02,883.064,232.371z"/>
	</g>
	<g opacity="0.09">
		<path fill="#CC824A" d="M976.463,249.857l-41.075-0.954l0,0l-6.646-0.478v-10.907c14.282,0.853,30.133,1.159,47.347,0.478
			L976.463,249.857z"/>
	</g>
	<g opacity="0.09">
		<path fill="#CC824A" d="M1059.567,227.838c-2.693,4.67-5.659,9.51-8.897,14.316h-0.136l-17.623,0.955l1.091-10.704
			C1042.342,231.133,1050.863,229.61,1059.567,227.838z"/>
	</g>
	<g opacity="0.05">
		<path fill="#CC824A" d="M1051.693,240.654c-3.6,5.469-7.479,10.748-11.624,15.816l0,0c-79.253,12.852-148.108,3-177.832-2.795
			c-2.315-4.508-4.298-9.179-5.932-13.976c16.021,3.136,48.847,8.556,90.331,9.919
			C1002.267,251.426,1046.239,241.882,1051.693,240.654z"/>
	</g>
	<g opacity="0.2">
		<path fill="#CC824A" d="M917.424,248.972v12.135c-18.168-1.432-33.575-3.579-45.369-5.59l-1.841-13.294
			c8.453,1.397,18.884,2.897,30.849,4.192L917.424,248.972z"/>
	</g>
	<g opacity="0.09">
		<path fill="#CC824A" d="M1020.946,246.961l-3.17,12.543c-17.431,1.987-34.952,3.068-52.494,3.238l-1.261-12.781l2.59-0.137
			c13.056-0.171,25.19-0.887,35.962-1.875L1020.946,246.961z"/>
	</g>
	<g opacity="0.35">
		<path fill="#9B633A" d="M1020.026,249.482c-1.066,3.238-1.876,6.555-2.421,9.92c-0.008,0.131,0.093,0.244,0.225,0.252
			c0.089,0.006,0.174-0.039,0.219-0.115c1-3.266,1.741-6.605,2.216-9.988c-0.011-0.074-0.081-0.125-0.155-0.114
			C1020.077,249.441,1020.047,249.458,1020.026,249.482z"/>
		<path fill="#9B633A" d="M964.328,253.539c-0.158,3.064,0.001,6.139,0.477,9.17c0.034,0.307,0.512,0.204,0.512-0.068
			c0.089-3.061-0.14-6.122-0.682-9.135C964.635,253.301,964.328,253.369,964.328,253.539z"/>
		<path fill="#9B633A" d="M917.492,252.482c-0.581,2.951-0.811,5.961-0.682,8.965c0,0.273,0.443,0.342,0.478,0.068
			c0.503-2.972,0.651-5.992,0.442-8.999C917.73,252.381,917.526,252.346,917.492,252.482z"/>
		<path fill="#9B633A" d="M870.827,246.143c-0.238,3.102,0.307,6.578,0.75,9.681c0.034,0.341,0.579,0.239,0.579-0.068
			c-0.136-3.102-0.307-6.612-1.125-9.612c0-0.057-0.045-0.103-0.102-0.103S870.827,246.086,870.827,246.143z"/>
	</g>
	<g opacity="0.3">
		<path fill="#9B633A" d="M1068.941,210.112c-10.09,20.827-29.315,54.198-54.982,70.186c-38.689,24.1-151.04,44.483-164.129-70.39
			l18.031,5.011c0,0,10.328,68.583,72.162,76.525s106.863-39.712,121.146-78.946
			C1063.351,211.748,1066.316,210.862,1068.941,210.112z"/>
	</g>
	<g opacity="0.3">
		<path fill="#9B633A" d="M959.112,298.057c-46.29,5.352-100.761-10.566-109.351-88.898c6.477,1.602,28.905,6.988,48.506,9.715
			c0,0-5.966,21.986,6.237,28.735C907.13,264.72,906.448,291.547,959.112,298.057z"/>
	</g>
	<path fill="#895634" d="M1076.917,192.012c0,0-2.624,7.022-7.567,17.316c-0.863,1.795-1.795,3.67-2.795,5.625
		c-5.386,1.533-16.941,4.567-32.451,7.431c-17.623,3.272-43.699,6.886-72.537,6.886c-3.863,0-7.771-0.068-11.726-0.205
		c-53.414-1.875-88.967-11.726-99.432-14.998c-0.25-1.704-0.466-3.442-0.647-5.215l-0.068-0.478
		c39.098,10.261,97.83,21.202,164.947,12.306c4.295-0.568,8.624-1.216,12.986-1.943v-0.068c3.988-6.033,9.272-16.873,9.272-16.873
		S1058.033,197.807,1076.917,192.012z"/>
	<path fill="#B97943" d="M1076.917,192.012c0,0-2.761,7.329-7.908,17.998c-18.305,4.023-41.382,8.693-41.382,8.693
		c3.988-6.034,9.307-16.941,9.307-16.941S1058.033,197.807,1076.917,192.012z"/>
	<path fill="#895634" d="M1052,240.143c-1.228,1.842-2.488,3.693-3.784,5.557c-24.534,4.935-49.435,7.842-74.446,8.692
		c-5.249,0.182-10.51,0.272-15.782,0.272c-15.814-0.003-31.618-0.834-47.347-2.488c-26.315-2.761-45.165-7.192-53.21-9.306
		c-0.659-1.772-1.295-3.591-1.908-5.454c4.567,1.33,24.985,6.852,55.731,10.056c32.213,3.375,82.627,4.841,139.996-7.294
		C1051.496,240.127,1051.75,240.115,1052,240.143z"/>
	<path fill="#895634" d="M862.715,241.234c0,0-1.603,6.203,4.261,7.533c5.862,1.329,6.169-5.216,6.169-5.216L862.715,241.234z"/>
	<path fill="#B8592B" d="M863.601,241.541c0,0-1.329,5.146,3.511,6.238c4.841,1.09,5.113-4.33,5.113-4.33L863.601,241.541z"/>
	<path fill="#C7663C" d="M865.476,243.552l4.84,0.989c0.254,0.072,0.4,0.336,0.328,0.59c-0.006,0.02-0.013,0.039-0.021,0.057
		c-0.409,0.785-1.364,2.08-3.137,1.738c-1.772-0.34-2.352-1.908-2.557-2.828c-0.04-0.261,0.138-0.505,0.398-0.546
		C865.377,243.544,865.427,243.544,865.476,243.552z"/>
	<path fill="#895634" d="M879.451,244.745c0,0-1.295,6.272,4.602,7.329c5.897,1.057,5.932-5.522,5.932-5.522L879.451,244.745z"/>
	<path fill="#B8592B" d="M880.338,245.052c0,0-1.092,5.216,3.817,6.067c4.908,0.852,4.908-4.567,4.908-4.567L880.338,245.052z"/>
	<path fill="#C7663C" d="M882.28,246.926l4.909,0.75c0.257,0.057,0.421,0.311,0.365,0.568c-0.006,0.027-0.014,0.054-0.025,0.08
		c-0.375,0.783-1.261,2.147-3.067,1.875c-1.807-0.273-2.454-1.773-2.692-2.693c-0.059-0.257,0.104-0.512,0.36-0.57
		C882.18,246.925,882.23,246.922,882.28,246.926z"/>
	<path fill="#895634" d="M915.788,249.961c0,0-0.682,6.373,5.317,6.851s5.352-6.067,5.352-6.067L915.788,249.961z"/>
	<path fill="#B8592B" d="M916.708,250.131c0,0-0.579,5.283,4.397,5.658s4.432-5.011,4.432-5.011L916.708,250.131z"/>
	<path fill="#C7663C" d="M918.821,251.835l4.943,0.272c0.262,0.026,0.453,0.26,0.427,0.522c-0.003,0.031-0.009,0.062-0.018,0.091
		c-0.273,0.818-1.057,2.25-2.863,2.182s-2.625-1.533-2.966-2.42c-0.095-0.246,0.027-0.521,0.273-0.617
		C918.684,251.841,918.752,251.83,918.821,251.835z"/>
	<path fill="#895634" d="M897.381,247.881c0,0-0.92,6.34,5.079,7.021s5.556-5.862,5.556-5.862L897.381,247.881z"/>
	<path fill="#B8592B" d="M898.301,248.119c0,0-0.749,5.25,4.193,5.829s4.602-4.874,4.602-4.874L898.301,248.119z"/>
	<path fill="#C7663C" d="M900.381,249.893l4.942,0.442c0.263,0.026,0.453,0.261,0.427,0.522c-0.003,0.031-0.009,0.062-0.018,0.092
		c-0.307,0.817-1.125,2.215-2.932,2.078c-1.807-0.136-2.557-1.635-2.863-2.521c-0.075-0.253,0.068-0.519,0.32-0.594
		C900.298,249.9,900.339,249.894,900.381,249.893z"/>
	<path fill="#AA513C" d="M1081.621,174.696c-1.567,0.442-43.018,11.556-45.506,11.999c-2.488,0.442-2.727,5.112,0.238,4.431
		c2.966-0.682,42.336-10.465,44.484-11.146C1082.984,179.298,1084.109,173.98,1081.621,174.696z"/>
	<path fill="#AA513C" d="M958.021,252.619c-15.825,0.009-31.641-0.811-47.381-2.455c-35.314-3.715-57.266-10.464-57.471-10.532
		c-1.262-0.396-1.963-1.738-1.568-2.999c0.396-1.262,1.738-1.964,3-1.568c0.205,0.068,21.816,6.681,56.721,10.362
		c32.179,3.374,82.627,4.841,139.996-7.295c1.289-0.272,2.556,0.552,2.829,1.841c0.272,1.289-0.552,2.557-1.841,2.829l0,0
		c-25.842,5.448-52.108,8.642-78.503,9.544C968.532,252.528,963.271,252.619,958.021,252.619z"/>
	<path fill="#AA513C" d="M961.533,227.225c-3.863,0-7.772-0.068-11.727-0.205c-63.947-2.25-102.261-15.918-102.636-16.055
		c-1.243-0.452-1.884-1.826-1.432-3.068s1.825-1.883,3.067-1.432c0.409,0.137,38.109,13.533,101.205,15.783
		c63.095,2.249,117.94-14.691,118.486-14.862c1.261-0.396,2.604,0.307,3,1.567c0.395,1.262-0.308,2.605-1.568,3l0,0
		c-0.137,0.034-14.146,4.397-35.791,8.42C1016.447,223.611,990.37,227.225,961.533,227.225z"/>
	<path fill="#AF5D4A" d="M958.056,250.778c-15.78,0.007-31.55-0.812-47.244-2.454c-35.212-3.716-57.062-10.396-57.267-10.465
		c-0.631-0.197-0.981-0.869-0.784-1.5c0.198-0.631,0.869-0.981,1.5-0.783c0.204,0.067,21.884,6.715,56.892,10.396
		c32.28,3.374,82.865,4.874,140.438-7.295c0.623-0.215,1.302,0.117,1.516,0.74c0.215,0.623-0.117,1.302-0.74,1.516
		c-0.097,0.033-0.196,0.055-0.298,0.062c-25.775,5.432-51.973,8.614-78.299,9.511C968.521,250.688,963.282,250.778,958.056,250.778z
		"/>
	<path fill="#AF5D4A" d="M961.396,225.418c-3.863,0-7.761-0.068-11.691-0.205c-63.777-2.25-101.921-15.85-102.296-15.986
		c-0.621-0.227-0.941-0.913-0.716-1.534c0.227-0.621,0.913-0.942,1.534-0.716c0.375,0.17,38.212,13.635,101.545,15.851
		c63.334,2.216,118.351-14.726,118.896-14.931c0.631-0.197,1.303,0.154,1.5,0.784c0.197,0.631-0.153,1.302-0.784,1.5
		c-0.136,0.034-14.077,4.363-35.655,8.386C1016.141,221.805,990.166,225.418,961.396,225.418z"/>
	<g opacity="0.15">
		<path fill="#CC824A" d="M1040.069,256.437c-2.284,2.796-4.67,5.488-7.158,8.079c-20.418,3.783-84.195,13.157-163.447,0.887
			c-2.714-3.713-5.131-7.634-7.227-11.727C891.961,259.471,960.851,269.322,1040.069,256.437z"/>
	</g>
	<g opacity="0.09">
		<path fill="#CC824A" d="M894.995,268.708c-8.295-0.863-16.806-1.966-25.531-3.306c-2.714-3.713-5.131-7.634-7.227-11.727
			c8.044,1.568,18.952,3.443,32.144,5.079L894.995,268.708z"/>
	</g>
	<g opacity="0.09">
		<path fill="#CC824A" d="M996.199,261.516l-2.113,8.113c-17.762,1.525-35.59,2.139-53.414,1.84l-0.887-9.066
			C958.592,263.116,977.424,262.82,996.199,261.516z"/>
	</g>
	<g opacity="0.5">
		<path fill="#9B633A" d="M894.586,258.618c-0.045-0.061-0.13-0.074-0.19-0.03c-0.022,0.017-0.039,0.039-0.048,0.064
			c-0.068,3.375,0.408,6.75,0.408,10.158c0.053,0.141,0.21,0.213,0.351,0.16c0.075-0.027,0.134-0.086,0.161-0.16
			C895.233,265.47,895.302,261.891,894.586,258.618z"/>
		<path fill="#9B633A" d="M996.097,261.311c-0.935,2.714-1.709,5.479-2.317,8.283c0.006,0.113,0.102,0.2,0.215,0.194
			c0.064-0.003,0.124-0.037,0.16-0.091c0.89-2.728,1.618-5.505,2.182-8.318c0.019-0.065-0.02-0.135-0.086-0.152
			C996.185,261.207,996.116,261.245,996.097,261.311z"/>
		<path fill="#9B633A" d="M939.956,262.164c-0.034-0.137-0.239-0.104-0.239,0.033c-0.034,3.102,0.341,6.238,0.58,9.34
			c0.033,0.342,0.545,0.342,0.511,0C940.569,268.401,940.467,265.231,939.956,262.164z"/>
	</g>
	<path fill="#AF5D4A" d="M954.783,209.192c-4.84-0.784-38.177-5.488-39.711-5.761c-1.534-0.273-1.738,1.295,0.852,1.875
		c2.591,0.579,35.996,5.215,37.633,5.317C955.192,210.727,956.488,209.465,954.783,209.192z"/>
	<path fill="#AF5D4A" d="M862.646,254.494l0.682,1.261l0,0L862.646,254.494z"/>
	<g opacity="0.15">
		<path fill="#00AEEF" d="M1040.069,256.437l-0.716,0.853l0.682-0.853l0,0H1040.069z"/>
	</g>
	<path fill="#CC824A" d="M867.827,263.05l1.671,2.353L867.827,263.05z"/>
	<g opacity="0.09">
		<path fill="#CC824A" d="M1032.911,264.516c-4.295,4.541-8.983,8.693-14.01,12.407c-32.587,6.784-81.502,10.533-140.473-1.261
			c-3.278-3.155-6.278-6.588-8.965-10.26C948.716,277.673,1012.527,268.299,1032.911,264.516z"/>
	</g>
	<path fill="#CC824A" d="M853.136,228.792l0.239,0.886l0,0L853.136,228.792z"/>
	<path fill="#AD6D3D" d="M853.477,196.955c0-0.076-0.062-0.137-0.137-0.136s-0.135,0.062-0.136,0.136
		c-0.103,3.204-0.238,6.442-0.171,9.646c0,0.094,0.077,0.17,0.171,0.17c0.095,0,0.171-0.076,0.171-0.17
		C853.511,203.397,853.511,200.159,853.477,196.955z"/>
	<path fill="#AD6D3D" d="M871.918,190.547c-0.58,3.238-0.887,6.545-1.295,9.816c-0.034,0.273,0.408,0.273,0.442,0
		c0.375-3.238,0.887-6.51,1.057-9.783c0.01-0.057-0.028-0.109-0.085-0.119C871.98,190.452,871.928,190.49,871.918,190.547z"/>
	<path fill="#AD6D3D" d="M858.283,172.924c0-0.076-0.062-0.137-0.137-0.136s-0.136,0.061-0.136,0.136
		c-0.034,2.761-0.103,5.521-0.171,8.283c0,0.238,0.341,0.204,0.341,0C858.502,178.457,858.536,175.681,858.283,172.924z"/>
	<path fill="#AD6D3D" d="M900.892,191.297c-0.341,2.386-0.716,4.771-0.886,7.191c0.025,0.071,0.104,0.108,0.174,0.083
		c0.026-0.01,0.049-0.026,0.064-0.048c0.409-2.387,0.58-4.807,0.818-7.193C901.131,191.229,900.926,191.194,900.892,191.297z"/>
	<path fill="#AD6D3D" d="M910.3,213.078c-0.034-0.17-0.307-0.205-0.272,0c-0.014,1.516,0.217,3.023,0.682,4.465
		c0.068,0.137,0.307,0.137,0.272-0.033C910.812,216.01,910.471,214.544,910.3,213.078z"/>
	<path fill="#AD6D3D" d="M888.212,207.863c-0.001-0.076-0.062-0.137-0.138-0.137c-0.074,0.001-0.135,0.062-0.136,0.137
		c-0.124,1.964-0.102,3.936,0.068,5.896c0,0.057,0.046,0.102,0.103,0.102s0.103-0.045,0.103-0.102
		C888.358,211.797,888.369,209.825,888.212,207.863z"/>
	<path fill="#AA513C" d="M836.774,152.607l77.31,39.166c1.164,0.58,1.903,1.768,1.908,3.068v0.068c0,2.488-2.59,3.102-4.874,2.078
		l-77.957-36.063c-1.472-0.669-2.28-2.271-1.943-3.852l0.647-2.114c0.401-1.857,2.232-3.04,4.092-2.639
		C836.24,152.381,836.515,152.478,836.774,152.607z"/>
	<path fill="#AF5D4A" d="M913.402,194.773c-0.438-0.014-0.867-0.119-1.262-0.307l-77.957-36.099
		c-0.582-0.255-0.918-0.872-0.818-1.499l0.648-2.08v-0.102c0.129-0.652,0.699-1.122,1.363-1.125
		c0.212-0.002,0.422,0.045,0.613,0.136l77.344,39.2c0.481,0.235,0.786,0.726,0.783,1.262v0.068
		C914.117,194.535,914.117,194.773,913.402,194.773z"/>
	<path fill="#AA513C" d="M838.922,134.848l76.082,41.451c1.147,0.618,1.847,1.832,1.807,3.135v0.068
		c-0.068,2.488-2.454,2.387-4.67,1.296l-76.866-38.382c-1.446-0.706-2.211-2.319-1.841-3.886l0.478-1.432
		c0.425-1.854,2.271-3.012,4.125-2.587C838.346,134.583,838.644,134.696,838.922,134.848z"/>
	<path fill="#AF5D4A" d="M914.936,178.82c-0.608-0.068-1.199-0.254-1.738-0.545l-76.832-38.382c-0.583-0.27-0.906-0.903-0.784-1.534
		l0.478-1.432v-0.103c0.144-0.638,0.71-1.091,1.363-1.091c0.227,0.002,0.449,0.061,0.647,0.171l76.116,41.518
		c0.479,0.251,0.771,0.755,0.75,1.296v0.136V178.82z"/>
	<path fill="#B97943" d="M1201.199,159.187l-124.282,32.825l-2.692,6.579l127.008-37.837c0,0,1.023-0.238,1.091-0.886
		C1202.392,159.221,1201.847,159.016,1201.199,159.187z"/>
	<path fill="#25259E" enable-background="new    " d="M1000.494,275.935c-20.656,10.601-31.053,17.248-54.914,11.794
		c-23.861-5.453-47.79-18.135-72.674-16.055c28.19,32.724,83.377,34.939,125.168,17.76c11.657-4.807,22.19-11.182,31.599-19.566
		c-11.556-0.205-18.714,0.716-29.179,6.102l0,0V275.935z"/>
	<path fill="#A8907B" d="M1002.062,225.52c-0.187-0.003-0.356-0.107-0.443-0.272c-6.715-11.896-12.34-28.088-16.771-48.165
		c-3.546-16.055-6.307-34.598-8.249-55.119c-3.307-34.939-3-63.947-3-64.22c0-0.283,0.229-0.512,0.512-0.512l0,0
		c0.282,0,0.511,0.229,0.511,0.512c0,0.272-0.307,29.247,3,64.118c3.033,32.178,9.816,76.15,24.917,102.875
		c0.128,0.244,0.037,0.547-0.204,0.682L1002.062,225.52z"/>
	<path fill="#A8907B" d="M1031.002,221.259c-0.18,0.004-0.348-0.087-0.443-0.238c-19.94-32.008-32.314-74.14-39.166-103.863
		c-7.431-32.212-10.191-57.198-10.191-57.437c-0.028-0.283,0.178-0.534,0.46-0.562s0.534,0.178,0.562,0.46
		c0.034,0.239,2.795,25.156,10.192,57.3c6.852,29.656,19.19,71.685,39.029,103.556c0.152,0.238,0.083,0.555-0.155,0.707
		c-0.005,0.003-0.01,0.006-0.015,0.01L1031.002,221.259z"/>
	<path fill="#A8907B" d="M1011.368,224.395c-0.206,0.004-0.395-0.117-0.478-0.307c-18.134-40.291-26.725-82.218-30.746-110.339
		c-4.363-30.44-4.432-51.642-4.432-51.847c0-0.282,0.229-0.511,0.512-0.511l0,0c0.282,0,0.511,0.229,0.511,0.511
		c0,0.205,0.068,21.339,4.432,51.744c4.022,28.02,12.612,69.878,30.679,110.034c0.115,0.258-0.001,0.56-0.259,0.675
		c-0.005,0.003-0.01,0.005-0.015,0.007h-0.204V224.395z"/>
	<path fill="#A8907B" d="M1020.605,223.031c-0.187-0.003-0.356-0.107-0.443-0.272c-18.509-36.984-28.837-79.014-34.291-107.749
		c-5.897-31.122-7.397-53.824-7.432-54.062c-0.019-0.283,0.195-0.527,0.478-0.545c0.282-0.019,0.526,0.195,0.546,0.477
		c0,0.239,1.533,22.873,7.396,53.96c5.454,28.667,15.782,70.594,34.224,107.476c0.122,0.255,0.015,0.56-0.239,0.683
		L1020.605,223.031z"/>
	<path fill="#A8907B" d="M993.506,206.432c-0.281-0.008-0.505-0.242-0.498-0.524c0.005-0.207,0.135-0.391,0.328-0.465
		c0.137-0.067,15.066-5.624,26.35-5.624h0.17c0.282,0,0.512,0.229,0.512,0.512c0,0.281-0.229,0.511-0.512,0.511h-0.17
		c-11.112,0-25.838,5.522-26.009,5.556h-0.171V206.432z"/>
	<path fill="#A8907B" d="M986.519,182.57c-0.282,0.037-0.542-0.161-0.579-0.443c-0.038-0.282,0.16-0.542,0.442-0.58
		c0.137-0.033,12.852-3.17,24.646-2.113c0.282,0.029,0.488,0.281,0.46,0.562c-0.028,0.283-0.28,0.488-0.562,0.461
		c-11.624-1.023-24.168,2.045-24.304,2.079h-0.137L986.519,182.57z"/>
	<path fill="#A8907B" d="M982.769,164.641c-0.282-0.008-0.505-0.242-0.498-0.523c0.005-0.207,0.135-0.391,0.328-0.465
		c0.103-0.035,10.84-3.75,21.952-2.148c0.282,0.038,0.48,0.297,0.443,0.58c-0.038,0.282-0.298,0.48-0.58,0.443
		c-10.84-1.568-21.372,2.045-21.475,2.079h-0.171V164.641z"/>
	<path fill="#A8907B" d="M998.551,143.404h-0.102c-8.624-1.875-18.816,0-18.918,0c-0.264,0.101-0.56-0.031-0.661-0.294
		c-0.101-0.264,0.03-0.559,0.294-0.661c0.062-0.024,0.129-0.035,0.196-0.034c0.103-0.034,10.465-1.909,19.293,0
		c0.267,0.095,0.405,0.387,0.312,0.653C998.9,143.249,998.741,143.378,998.551,143.404z"/>
	<path fill="#A8907B" d="M993.438,123.975h-0.171c-6.067-2.25-15.782,0-15.885,0.034c-0.266,0.095-0.559-0.044-0.653-0.31
		s0.044-0.559,0.311-0.653c0.034-0.012,0.069-0.021,0.104-0.025c0.409-0.102,10.124-2.318,16.498,0.034
		c0.23,0.163,0.285,0.482,0.122,0.713C993.688,123.876,993.57,123.951,993.438,123.975z"/>
	<path fill="#A8907B" d="M976.02,109.692c-0.281-0.023-0.49-0.271-0.467-0.552c0.017-0.197,0.146-0.367,0.331-0.437
		c0.341-0.102,8.044-2.42,14.18-1.022c0.267,0.095,0.405,0.387,0.31,0.653c-0.08,0.227-0.309,0.367-0.548,0.335
		c-5.863-1.33-13.567,0.955-13.669,0.989h-0.137V109.692z"/>
	<path fill="#A8907B" d="M975.201,97.148c-0.282-0.007-0.505-0.242-0.498-0.524c0.005-0.207,0.135-0.39,0.328-0.464
		c0.272-0.103,7.09-2.455,12.408-1.261c0.279,0.037,0.477,0.294,0.439,0.574s-0.294,0.477-0.574,0.44
		c-0.035-0.005-0.07-0.013-0.104-0.025c-5.045-1.125-11.794,1.193-11.862,1.227h-0.17L975.201,97.148z"/>
	<path fill="#A8907B" d="M974.622,84.945c-0.282-0.007-0.505-0.242-0.498-0.524c0.005-0.207,0.135-0.39,0.328-0.464
		c0.238-0.068,6.203-1.977,11.078,0c0.264,0.104,0.394,0.401,0.289,0.665c-0.104,0.264-0.4,0.393-0.664,0.29
		c-4.534-1.84-10.329,0-10.396,0h-0.171L974.622,84.945z"/>
	<path fill="#A8907B" d="M974.315,75.81c-0.281-0.023-0.49-0.271-0.467-0.552c0.017-0.197,0.146-0.367,0.33-0.436
		c0.205-0.068,4.841-1.432,9.715-0.545c0.282,0.047,0.474,0.314,0.427,0.596c-0.048,0.283-0.314,0.473-0.597,0.426
		c-4.636-0.852-9.17,0.511-9.204,0.511h-0.136H974.315z"/>
	<path fill="#A8907B" d="M974.145,68.413c-0.281-0.023-0.49-0.271-0.467-0.552c0.017-0.197,0.146-0.367,0.331-0.436
		c0.204-0.068,4.908-1.5,8.726-0.784c0.283,0.047,0.474,0.314,0.427,0.597c-0.047,0.282-0.314,0.473-0.597,0.426
		c-3.579-0.647-8.215,0.75-8.249,0.75h-0.137H974.145z"/>
	<path fill="#895634" d="M1003.767,223.645c-0.75-0.783-1.978-0.75-2.591-0.579s-1.738,0.75-1.977,1.772
		c-0.239,1.023,0.954,5.25,3.646,4.533C1005.539,228.656,1004.482,224.43,1003.767,223.645z"/>
	<path fill="#B8592B" d="M1003.835,223.236c-0.716-0.75-1.943-0.682-2.591-0.512s-1.738,0.716-2.011,1.738
		c-0.273,1.023,0.886,4.977,3.579,4.262C1005.505,228.008,1004.551,223.986,1003.835,223.236z"/>
	<path fill="#C7663C" d="M1003.323,223.305c-0.511-0.375-1.466-0.273-1.942-0.137c-0.478,0.137-1.364,0.512-1.637,1.057
		s0.375,2.693,2.488,2.113S1003.801,223.68,1003.323,223.305z"/>
	<path fill="#895634" d="M1013.277,222.384c-0.75-0.784-1.978-0.75-2.591-0.579c-0.614,0.17-1.739,0.75-1.978,1.771
		c-0.238,1.023,0.955,5.25,3.647,4.534C1015.05,227.395,1013.992,223.168,1013.277,222.384z"/>
	<path fill="#B8592B" d="M1013.345,221.975c-0.716-0.75-1.942-0.682-2.591-0.512c-0.647,0.171-1.738,0.717-2.011,1.739
		s0.887,4.977,3.579,4.261C1015.016,226.747,1014.061,222.69,1013.345,221.975z"/>
	<path fill="#C7663C" d="M1012.8,222.043c-0.512-0.375-1.466-0.272-1.943-0.137c-0.478,0.137-1.363,0.512-1.636,1.057
		c-0.273,0.546,0.375,2.693,2.488,2.113C1013.822,224.497,1013.311,222.384,1012.8,222.043z"/>
	<path fill="#895634" d="M1022.515,221.088c-0.75-0.783-1.978-0.75-2.591-0.578c-0.613,0.17-1.738,0.749-1.977,1.771
		c-0.239,1.023,0.954,5.25,3.646,4.533C1024.287,226.1,1023.23,221.906,1022.515,221.088z"/>
	<path fill="#B8592B" d="M1022.583,220.68c-0.716-0.75-1.943-0.682-2.591-0.512s-1.738,0.716-2.012,1.738
		c-0.272,1.023,0.887,4.977,3.58,4.262C1024.253,225.451,1023.299,221.43,1022.583,220.68z"/>
	<path fill="#C7663C" d="M1022.071,220.748c-0.511-0.375-1.466-0.273-1.942-0.137c-0.478,0.137-1.364,0.512-1.637,1.057
		s0.375,2.693,2.488,2.113C1023.094,223.202,1022.549,221.123,1022.071,220.748z"/>
	<path fill="#895634" d="M1032.468,218.941c-0.75-0.784-1.977-0.75-2.591-0.58c-0.613,0.171-1.738,0.75-1.977,1.773
		c-0.238,1.021,0.954,5.248,3.647,4.533C1034.24,223.951,1033.218,219.725,1032.468,218.941z"/>
	<path fill="#B8592B" d="M1032.536,218.498c-0.716-0.75-1.943-0.682-2.591-0.512c-0.647,0.171-1.738,0.717-2.011,1.738
		c-0.272,1.023,0.886,4.977,3.579,4.262C1034.206,223.27,1033.252,219.248,1032.536,218.498z"/>
	<path fill="#C7663C" d="M1032.024,218.6c-0.511-0.375-1.466-0.271-1.942-0.136c-0.478,0.136-1.363,0.511-1.637,1.057
		c-0.272,0.546,0.375,2.692,2.488,2.113S1032.536,218.941,1032.024,218.6z"/>
	<path fill="#895634" d="M1049.137,232.371c0.102-0.852-1.023-2.454-1.432-2.488c-0.409-0.033-1.909,1.228-2.012,2.045
		c-0.102,0.818,0.375,0.717,0.853,0.818c-0.067,0.303-0.158,0.599-0.272,0.887c-0.955,2.011-3.853,0.682-3.75-0.137l0.818-6.374
		c1.143-0.381,1.762-1.616,1.381-2.759c-0.381-1.144-1.616-1.762-2.76-1.381c-1.143,0.381-1.761,1.615-1.38,2.759
		c0.156,0.47,0.468,0.873,0.884,1.142l-0.818,6.375c-0.102,0.783-3.238,1.363-3.646-0.818c-0.036-0.305-0.048-0.613-0.035-0.92
		c0.512,0.033,0.955-0.035,1.023-0.58s-1.023-2.454-1.432-2.488c-0.409-0.034-1.909,1.227-2.012,2.045
		c-0.102,0.818,0.443,0.75,0.955,0.818c-0.068,1.398,0.341,4.602,5.658,5.283s6.545-2.317,6.817-3.715
		C1048.522,232.984,1049.034,232.951,1049.137,232.371z M1042.762,224.122c0.523,0.062,0.898,0.536,0.837,1.06
		s-0.535,0.898-1.059,0.836c-0.523-0.061-0.898-0.535-0.837-1.059c0.001-0.006,0.002-0.012,0.002-0.019
		C1041.776,224.426,1042.246,224.062,1042.762,224.122z"/>
	<path fill="#778187" d="M1049.205,231.689c0.102-0.852-1.023-2.454-1.432-2.488c-0.409-0.034-1.909,1.227-2.012,2.045
		s0.375,0.717,0.853,0.818c-0.067,0.303-0.159,0.599-0.272,0.887c-0.955,2.011-3.853,0.682-3.75-0.137l0.818-6.375
		c1.143-0.38,1.761-1.615,1.381-2.758c-0.381-1.144-1.616-1.762-2.76-1.381c-1.143,0.381-1.761,1.615-1.381,2.759
		c0.157,0.47,0.469,0.872,0.885,1.142l-0.818,6.375c-0.103,0.783-3.238,1.363-3.647-0.818c-0.035-0.306-0.047-0.613-0.034-0.92
		c0.512,0.033,0.955-0.035,1.023-0.58c0.067-0.545-1.023-2.454-1.432-2.488c-0.409-0.034-1.909,1.227-2.012,2.045
		s0.443,0.75,0.955,0.818c-0.068,1.397,0.34,4.602,5.658,5.283c5.317,0.682,6.545-2.317,6.817-3.715
		C1048.591,232.303,1049.137,232.27,1049.205,231.689z M1042.83,223.44c0.523,0.062,0.898,0.536,0.837,1.06
		s-0.535,0.898-1.059,0.836c-0.524-0.061-0.898-0.535-0.837-1.059c0-0.006,0.001-0.013,0.002-0.019
		C1041.845,223.744,1042.314,223.38,1042.83,223.44z"/>
	<path fill="#848D91" d="M1041.364,235.234c-4.737-0.613-5.317-3.238-5.215-4.738v-0.477l-0.478-0.068
		c-0.545-0.068-0.545-0.17-0.545-0.238s1.022-1.398,1.432-1.603s1.057,1.397,0.988,1.909s-0.034,0.17-0.478,0.137h-0.545v0.545
		c-0.015,0.33-0.003,0.66,0.034,0.988c0.173,1.07,1.065,1.877,2.147,1.943l0,0c1.125,0.137,2.42-0.307,2.522-1.125l0.852-6.682
		l-0.272-0.17c-0.779-0.494-1.011-1.525-0.517-2.305c0.493-0.779,1.525-1.011,2.305-0.518c0.779,0.494,1.011,1.525,0.517,2.305
		c-0.204,0.322-0.512,0.565-0.873,0.688l-0.307,0.103l-0.818,6.613c-0.067,0.409,0.205,0.853,0.716,1.192
		c0.44,0.293,0.942,0.479,1.466,0.546c1.058,0.204,2.117-0.347,2.557-1.329c0.129-0.321,0.231-0.651,0.307-0.988l0.103-0.512
		l-0.545-0.103c-0.443-0.068-0.443-0.171-0.443-0.239c0-0.067,1.022-1.396,1.432-1.602c0.408-0.205,1.057,1.398,0.988,1.909
		s-0.034,0.171-0.58,0.103l-0.477-0.068l-0.103,0.477C1047.296,233.428,1046.103,235.848,1041.364,235.234z M1042.933,222.725
		c-0.803-0.106-1.539,0.457-1.646,1.26c-0.107,0.803,0.457,1.539,1.26,1.646c0.802,0.106,1.539-0.457,1.646-1.26
		c0.001-0.004,0.001-0.007,0.001-0.01C1044.295,223.562,1043.731,222.83,1042.933,222.725z"/>
	<path fill="#B97943" d="M987.984,44.108c0,0-6.374-3.034-15.919-3.034c-9.544,0-15.919,3.034-15.919,3.034
		s-0.545,10.84,3.75,18.509c3,4.534,11.419,4.534,12.203,4.534s9.203,0,12.203-4.5C988.529,54.948,987.984,44.108,987.984,44.108z"
		/>
	<g opacity="0.5">
		<path fill="#895634" d="M987.95,46.904l-0.579-0.068c-2.421-0.545-10.09-1.704-15.34-1.704c-5.249,0-12.919,1.159-15.339,1.704
			l-0.579,0.103c-0.068-1.705,0-2.795,0-2.795s6.408-3.034,15.952-3.034c9.545,0,15.953,3.034,15.953,3.034
			S988.019,45.199,987.95,46.904z"/>
	</g>
	<g opacity="0.15">
		<path fill="#CC824A" d="M967.976,41.245l-0.171,17.112l-0.068,8.385c-2.352-0.409-5.146-1.261-6.953-3.034l-0.307-6.647
			l-0.683-14.282C962.465,42.005,965.205,41.491,967.976,41.245z"/>
		<g opacity="0.5">
			<path fill="#CC824A" d="M984.303,42.779l-0.988,20.929c-1.841,1.773-4.67,2.625-7.021,3.034l-0.273-25.497
				C978.824,41.486,981.599,42,984.303,42.779z"/>
		</g>
		<g opacity="0.5">
			<path fill="#CC824A" d="M967.805,58.357l-0.068,8.385c-2.352-0.409-5.146-1.261-6.953-3.034l-0.307-6.647L967.805,58.357z"/>
		</g>
	</g>
	<path fill="#AA513C" d="M989.961,42.506c-0.579-1.329-8.998-3.579-17.93-3.579c-8.931,0-17.35,2.25-17.93,3.579
		c-0.579,1.33,0.171,3.409,2.591,2.863s10.09-1.704,15.339-1.704c5.25,0,12.919,1.159,15.34,1.704
		C989.791,45.915,990.575,43.802,989.961,42.506z"/>
	<g opacity="0.3">
		<path fill="#9B633A" d="M985.973,58.63c-0.46,1.367-1.042,2.69-1.738,3.954c-2.999,4.533-11.419,4.533-12.203,4.533
			c-0.783,0-9.203,0-12.203-4.5c-1.807-3.238-2.761-7.056-3.238-10.396c3.375,3.682,9.545,9.204,15.851,9.204
			C978.747,61.425,983.008,60.334,985.973,58.63z"/>
	</g>
	<path fill="#AF5D4A" d="M973.497,39.541c-7.874-0.136-15.032,1.875-16.191,2.727s0.068,1.568,2.147,0.988
		c2.08-0.58,11.078-1.534,15.34-1.261c4.261,0.273,13.157,2.318,13.907,1.295S982.428,39.711,973.497,39.541z"/>
	<path fill="#F9DA78" d="M891.245,191.74c-7.771-2.046-12.681,7.976-13.431,12.885c6.954,1.567,18.407,4.908,18.407,4.908
		S900.688,194.229,891.245,191.74z"/>
	
		<rect x="881.409" y="199.044" transform="matrix(-0.2453 0.9694 -0.9694 -0.2453 1300.8169 -613.7562)" fill="#AA513C" width="15.783" height="0.791"/>
	
		<rect x="888.331" y="192.012" transform="matrix(-0.2452 0.9695 -0.9695 -0.2452 1301.0349 -613.1105)" fill="#AA513C" width="1.704" height="15.775"/>
	<path fill="#AA513C" d="M897.858,208.988c1.807-7.091,2.147-16.26-6.341-18.408c-8.487-2.146-12.544,6.068-14.316,13.158
		l2.454,0.613c0,0,3.068-13.873,11.352-11.794s4.397,15.782,4.397,15.782L897.858,208.988z"/>
	<path fill="#895634" d="M887.394,206.908l-10.533-2.658c-0.682-0.171-1.397,0.408-1.602,1.261l-0.103,0.375
		c-0.205,0.853,0.137,1.704,0.818,1.874l10.532,2.66l10.533,2.658c0.682,0.17,1.397-0.409,1.603-1.262l0.102-0.375
		c0.205-0.852-0.136-1.704-0.818-1.875L887.394,206.908z"/>
	<path fill="#AA513C" d="M887.529,206.363l-10.532-2.659c-0.682-0.171-1.397,0.409-1.603,1.261l-0.102,0.375
		c-0.205,0.853,0.136,1.705,0.817,1.875l10.533,2.659l10.533,2.659c0.682,0.17,1.397-0.41,1.602-1.262l0.103-0.375
		c0.204-0.852-0.137-1.704-0.818-1.875L887.529,206.363z"/>
	<path fill="#AF5D4A" d="M887.428,206.874l-9.953-2.522c-0.648-0.17-1.228,0.034-1.33,0.443v0.17
		c-0.102,0.41,0.307,0.887,0.955,1.023l9.953,2.521l9.953,2.523c0.647,0.17,1.228-0.035,1.329-0.443v-0.17
		c0.103-0.41-0.307-0.887-0.954-1.023L887.428,206.874z"/>
	<path fill="#F9DA78" d="M863.566,182.843c-8.658-2.284-14.078,8.862-14.93,14.316c7.737,1.739,20.452,5.454,20.452,5.454
		S874.065,185.604,863.566,182.843z"/>
	
		<rect x="852.64" y="190.968" transform="matrix(-0.2453 0.9695 -0.9695 -0.2453 1258.2534 -596.7267)" fill="#AA513C" width="17.522" height="0.881"/>
	
		<rect x="860.316" y="183.097" transform="matrix(-0.2455 0.9694 -0.9694 -0.2455 1258.7418 -595.9261)" fill="#AA513C" width="1.909" height="17.538"/>
	<path fill="#AA513C" d="M870.93,202c1.977-7.875,2.386-18.066-7.057-20.453c-9.441-2.385-13.941,6.75-15.918,14.624l2.727,0.682
		c0,0,3.409-15.441,12.612-13.089c9.203,2.352,4.874,17.521,4.874,17.521L870.93,202z"/>
	<path fill="#895634" d="M859.306,199.682l-11.726-2.965c-0.75-0.205-1.534,0.442-1.772,1.396l-0.103,0.443
		c-0.238,0.955,0.17,1.909,0.92,2.08l11.692,2.965l11.691,2.966c0.75,0.204,1.534-0.442,1.772-1.397l0.103-0.443
		c0.238-0.954-0.171-1.908-0.92-2.079L859.306,199.682z"/>
	<path fill="#AA513C" d="M859.442,199.103l-11.692-2.966c-0.75-0.205-1.533,0.443-1.772,1.397l-0.103,0.443
		c-0.238,0.954,0.171,1.909,0.921,2.079l11.691,2.966l11.692,2.966c0.75,0.204,1.533-0.443,1.772-1.398l0.103-0.442
		c0.238-0.954-0.171-1.909-0.921-2.079L859.442,199.103z"/>
	<path fill="#AF5D4A" d="M859.306,199.648l-11.078-2.796c-0.716-0.171-1.363,0.034-1.466,0.511l-0.068,0.205
		c-0.102,0.443,0.375,0.988,1.057,1.159l11.078,2.795l11.078,2.796c0.717,0.17,1.364-0.035,1.467-0.512l0.067-0.205
		c0.103-0.443-0.375-0.988-1.057-1.158L859.306,199.648z"/>
	<path fill="#934334" d="M906.312,241.37l-13.907-1.772c-0.614-0.088-1.05-0.645-0.988-1.262l1.295-10.703
		c0.088-0.613,0.645-1.049,1.262-0.988l13.328,1.568c0.613,0.071,1.062,0.611,1.022,1.227l-0.716,10.908
		c-0.07,0.637-0.644,1.095-1.279,1.024C906.322,241.371,906.317,241.371,906.312,241.37z"/>
	<path fill="#AA513C" d="M906.38,240.824l-13.907-1.771c-0.614-0.088-1.05-0.645-0.988-1.262l1.295-10.703
		c0.088-0.613,0.644-1.05,1.261-0.988l13.328,1.568c0.613,0.07,1.063,0.61,1.022,1.227l-0.715,10.908
		c-0.071,0.636-0.644,1.094-1.28,1.023C906.391,240.826,906.385,240.826,906.38,240.824z"/>
	<path fill="#895634" d="M904.642,238.746l-10.261-1.398c-0.448-0.053-0.77-0.459-0.717-0.907c0-0.005,0.001-0.009,0.001-0.013
		l1.023-7.602c0.067-0.447,0.485-0.754,0.932-0.686c0.008,0.002,0.015,0.002,0.022,0.004l9.817,1.227
		c0.438,0.037,0.77,0.413,0.749,0.853l-0.613,7.772c-0.031,0.45-0.422,0.791-0.872,0.76
		C904.696,238.754,904.669,238.75,904.642,238.746z"/>
	<path fill="#77482F" d="M906.176,230.189c-0.145-0.152-0.338-0.249-0.546-0.272l-10.158-1.261c-0.313-0.041-0.626,0.089-0.817,0.34
		v-0.17c0.07-0.459,0.494-0.777,0.954-0.716l9.817,1.228C905.864,229.374,906.195,229.75,906.176,230.189z"/>
	<circle fill="#77482F" cx="899.901" cy="233.451" r="3.716"/>
	<path fill="#934334" d="M949.875,244.574l-14.01-0.477c-0.613-0.037-1.092-0.545-1.091-1.159l0.307-10.771
		c0.019-0.627,0.532-1.126,1.159-1.125l13.43,0.341c0.614,0.018,1.107,0.512,1.125,1.125l0.307,10.941
		c-0.018,0.641-0.55,1.145-1.19,1.127C949.899,244.576,949.887,244.575,949.875,244.574z"/>
	<path fill="#AA513C" d="M949.875,244.029l-14.01-0.478c-0.613-0.036-1.092-0.544-1.091-1.159l0.307-10.771
		c0.019-0.627,0.532-1.125,1.159-1.125l13.43,0.342c0.614,0.018,1.107,0.511,1.125,1.125l0.307,10.941
		c-0.018,0.64-0.55,1.145-1.189,1.127C949.899,244.03,949.887,244.029,949.875,244.029z"/>
	<path fill="#895634" d="M947.966,242.12l-10.328-0.442c-0.452,0-0.818-0.366-0.818-0.818c0-0.012,0-0.023,0-0.035l0.308-7.635
		c0.017-0.451,0.396-0.804,0.848-0.786c0.013,0,0.025,0.001,0.038,0.002l9.886,0.341c0.438,0,0.799,0.346,0.817,0.784l0.137,7.772
		c0.001,0.451-0.363,0.818-0.815,0.82C948.014,242.123,947.99,242.122,947.966,242.12z"/>
	<path fill="#77482F" d="M948.682,233.462c-0.153-0.128-0.346-0.2-0.545-0.204l-10.227-0.307c-0.315-0.014-0.614,0.143-0.783,0.408
		v-0.17c0.036-0.457,0.428-0.804,0.886-0.784l9.886,0.341C948.3,232.76,948.632,233.063,948.682,233.462z"/>
	<circle fill="#77482F" cx="942.873" cy="237.149" r="3.715"/>
	<path fill="#934334" d="M993.098,243.723l-14.01,0.613c-0.628,0.02-1.156-0.465-1.193-1.091l-0.545-10.771
		c-0.02-0.628,0.464-1.156,1.09-1.192l13.396-0.717c0.604-0.021,1.123,0.424,1.193,1.023l1.159,10.873
		c0.058,0.638-0.413,1.201-1.051,1.258C993.124,243.721,993.111,243.722,993.098,243.723z"/>
	<path fill="#AA513C" d="M993.029,243.211l-14.01,0.58c-0.628,0.02-1.156-0.465-1.193-1.092l-0.545-10.771
		c-0.02-0.627,0.464-1.156,1.091-1.192l13.396-0.716c0.604-0.021,1.123,0.423,1.193,1.022l1.159,10.874
		c0.076,0.635-0.378,1.212-1.013,1.288C993.081,243.207,993.055,243.209,993.029,243.211z"/>
	<path fill="#895634" d="M990.984,241.438l-10.329,0.375c-0.451,0.019-0.833-0.331-0.852-0.782c0-0.001,0-0.002,0-0.002l-0.308-7.67
		c-0.019-0.451,0.332-0.832,0.784-0.852c0.011,0,0.022,0,0.034,0l9.886-0.443c0.44-0.04,0.833,0.277,0.886,0.716l0.75,7.737
		c0.058,0.449-0.26,0.858-0.708,0.916C991.08,241.439,991.032,241.441,990.984,241.438z"/>
	<path fill="#77482F" d="M991.052,232.746c-0.167-0.123-0.372-0.184-0.579-0.17l-10.227,0.477c-0.317,0.014-0.604,0.195-0.75,0.478
		v-0.171c0-0.457,0.361-0.834,0.818-0.852l9.886-0.443C990.616,232.041,990.983,232.335,991.052,232.746z"/>
	<circle fill="#77482F" cx="985.351" cy="237.069" r="3.716"/>
</g>
</svg>
