<svg xmlns="http://www.w3.org/2000/svg" viewBox="0 0 1186.9 880.1"><title>Homepage-Ship</title><g style="isolation:isolate"><path d="M310.6,669.1a1.5,1.5,0,0,1-1-2.6C364.8,615.8,413.9,562,455.4,506.6c33.2-44.3,61.8-89.8,84.8-135.1,39.2-77.2,49-127.9,49.1-128.4a1.5,1.5,0,0,1,2.9.6c-0.1.5-9.9,51.5-49.3,129-23.1,45.5-51.8,91.1-85.1,135.6C416.2,563.9,367,617.9,311.6,668.7A1.5,1.5,0,0,1,310.6,669.1Z" transform="translate(-96.7 -79.8)" fill="#a8907b"/><path d="M395.6,723.4a1.5,1.5,0,0,1-1.2-2.4c90.1-114,145.4-234.8,176-316,33.1-88,45.1-149.8,45.2-150.4a1.5,1.5,0,1,1,2.9.6c-0.1.6-12.1,62.6-45.3,150.9-30.6,81.4-86.1,202.5-176.5,316.8A1.5,1.5,0,0,1,395.6,723.4Z" transform="translate(-96.7 -79.8)" fill="#a8907b"/><path d="M343.2,675.6a1.5,1.5,0,0,1-1-2.6,989.1,989.1,0,0,0,133-153,865.3,865.3,0,0,0,77.3-134.2c35.7-77.8,44.6-130.8,44.7-131.3a1.5,1.5,0,1,1,3,.5c-0.1.5-9,53.9-44.9,132.1a868.3,868.3,0,0,1-77.6,134.6A992.2,992.2,0,0,1,344.3,675.2,1.5,1.5,0,0,1,343.2,675.6Z" transform="translate(-96.7 -79.8)" fill="#a8907b"/><path d="M384,695.6a1.5,1.5,0,0,1-1.2-2.4c97.4-125.4,153-236.2,182.6-307,32-76.8,41.1-124.5,41.2-125a1.5,1.5,0,1,1,2.9.6c-0.1.5-9.2,48.4-41.4,125.5-29.6,71-85.4,182.1-183,307.8A1.5,1.5,0,0,1,384,695.6Z" transform="translate(-96.7 -79.8)" fill="#a8907b"/><path d="M609.3,289.6h-0.2a217.9,217.9,0,0,1-29.4-6.5,1.5,1.5,0,1,1,.9-2.9,214.8,214.8,0,0,0,29,6.4A1.5,1.5,0,0,1,609.3,289.6Z" transform="translate(-96.7 -79.8)" fill="#a8907b"/><path d="M604.1,308.9H604c-11.8-1-30.3-6.5-31.1-6.8a1.5,1.5,0,0,1,.9-2.9c0.2,0.1,19,5.7,30.5,6.6A1.5,1.5,0,0,1,604.1,308.9Z" transform="translate(-96.7 -79.8)" fill="#a8907b"/><path d="M598.6,327.8h-0.2c-19.7-2.1-32.1-8.3-32.6-8.5a1.5,1.5,0,0,1,1.4-2.7c0.1,0.1,12.4,6.2,31.5,8.2A1.5,1.5,0,0,1,598.6,327.8Z" transform="translate(-96.7 -79.8)" fill="#a8907b"/><path d="M591.2,351.7h-0.4a234.8,234.8,0,0,1-33.7-11.9,1.5,1.5,0,0,1,1.3-2.7,231.4,231.4,0,0,0,33.2,11.7A1.5,1.5,0,0,1,591.2,351.7Z" transform="translate(-96.7 -79.8)" fill="#a8907b"/><path d="M581.8,379.6h-0.5A227.5,227.5,0,0,1,546,363.1a1.5,1.5,0,0,1,1.5-2.6,224.2,224.2,0,0,0,34.7,16.1A1.5,1.5,0,0,1,581.8,379.6Z" transform="translate(-96.7 -79.8)" fill="#a8907b"/><path d="M570.3,411.1H570c-20.1-4.4-38.2-18.6-39-19.2a1.5,1.5,0,1,1,1.9-2.4c0.2,0.1,18.3,14.4,37.7,18.6A1.5,1.5,0,0,1,570.3,411.1Z" transform="translate(-96.7 -79.8)" fill="#a8907b"/><path d="M552.8,454.6h-0.5a130.6,130.6,0,0,1-42.2-26.5,1.5,1.5,0,0,1,2.1-2.1,127.4,127.4,0,0,0,41.1,25.8A1.5,1.5,0,0,1,552.8,454.6Z" transform="translate(-96.7 -79.8)" fill="#a8907b"/><path d="M530,505.4l-0.7-.2c-29.5-15.2-46.6-34.3-46.8-34.5a1.5,1.5,0,0,1,2.2-2c0.2,0.2,16.9,18.9,45.9,33.8A1.5,1.5,0,0,1,530,505.4Z" transform="translate(-96.7 -79.8)" fill="#a8907b"/><path d="M506.9,551.6h-0.5c-34.3-11.3-54.4-37.9-54.6-38.2a1.5,1.5,0,0,1,2.4-1.8c0.2,0.3,19.8,26.1,53.2,37.1A1.5,1.5,0,0,1,506.9,551.6Z" transform="translate(-96.7 -79.8)" fill="#a8907b"/><path d="M476.9,605h-0.5c-32.7-12.9-61.7-44.4-62-44.8a1.5,1.5,0,0,1,2.2-2c0.3,0.3,28.9,31.4,60.9,44A1.5,1.5,0,0,1,476.9,605Z" transform="translate(-96.7 -79.8)" fill="#a8907b"/><path d="M865.1,311.7S1028.6,542.6,1264.4,551l-3.7,1.7s-197.3,13.4-398.2-238.9Z" transform="translate(-96.7 -79.8)" fill="#d98537"/><path d="M1229.8,550s-30.3,3.6-71.8,5.6c-43.5,2-99.3,2.2-145.2-5.6-10.2-16.1-17.1-35.8-21.9-54.4a356.4,356.4,0,0,1-9.9-61.8l2.9,2.7s34.9,63.3,109.2,87S1220.6,550,1220.6,550h9.2Z" transform="translate(-96.7 -79.8)" fill="#ecd9ae"/><path d="M346.4,280.1a187.1,187.1,0,0,1-38.2,11.4c-21.7,4-36.5,6.2-39.7,11.3-4.8,7.7,8,26.7,19.2,22.2s49.3-13.5,57.5-12.5c2.8-1.5,2-3.7,2-3.7s-9.2-5.7-8.8-13.5,8.9-12.8,8.9-12.8Z" transform="translate(-96.7 -79.8)" fill="#4c2420"/><path d="M268.5,311.7s15.7,0.6,19.3,13.3,5,18.2-7.8,15.3-29.5-8.7-46.8-6.8-22.5,4.8-24.5,4.2,5.8-7,21-9,36.7-9.7,38-11.3S268.5,311.7,268.5,311.7Z" transform="translate(-96.7 -79.8)" fill="#51312f"/><rect x="247" y="179.8" width="7.3" height="349.95" fill="#d98537"/><circle cx="250.7" cy="175" r="7.6" fill="#cc5b3d"/><path d="M862.1,318.7s-11.1-4.1-26.2,4-6.7,14.3-19.4,18.6-34.9,5.3-38.6,2.5-7.9-7.9-14.6-3.4-6.4,5.9-4.2,6.1,6.9-3.6,10.5-.7,26.4,23.1,50,13.9c12.4-4.8,11-14.9,41.9-8.4,1.4-1.9-.5-4.2-0.5-4.2s-11.6-14.6,1.2-25.5C862.7,320.6,862.1,318.7,862.1,318.7Z" transform="translate(-96.7 -79.8)" fill="#4c2420"/><rect x="762.3" y="229" width="6.1" height="396.56" fill="#d98537"/><circle cx="765.3" cy="225" r="6.3" fill="#cc5b3d"/><path d="M607.3,110.6s-23.8-20.5-66.2-12.5-52.3,39-52.3,39l15.7,49.3s27-26.7,52.3-26.7,43.6,7.3,50.5,11.7,0-6.7,0-6.7-20.5-33,.5-51C609.4,113.1,607.3,110.6,607.3,110.6Z" transform="translate(-96.7 -79.8)" fill="#4c2420"/><rect x="507.8" y="16.3" width="9.6" height="628.84" fill="#d98537"/><path d="M624.7,721.3c-2.4-9.4-8.1-11.5-15.4-11.5s-12.9,2.1-15.4,11.5-3.1,25.6-3.1,25.6h36.9S627.1,730.7,624.7,721.3Z" transform="translate(-96.7 -79.8)" fill="#964c38"/><circle cx="512.6" cy="10" r="10" fill="#cc5b3d"/><path d="M733.6,287.7a26.8,26.8,0,0,1-2,5.4h0c-6.2,13.2-25.8,37.7-55.3,25.5-19.5,52.2-81.3,53-107.5,24.8-38.9,23.5-62,2.2-67.1-3.4l-1.1-1.2s0-.4,1.2-0.9a26.3,26.3,0,0,1,6.4-1.4l8.4,0.2c27.3-.1,41.5-6.7,47.7-10.7a21.2,21.2,0,0,0,3.9-3.1l7.3-2.5a25.8,25.8,0,0,0,6.1,1.7c6.4,1.1,18,1.7,35.7-2.5s31.8-10.6,38.2-14.1h0a55.9,55.9,0,0,0,5-3.1l7.3-1.1,3.8,0.6c26.8,3.3,48.7-9.1,53.5-12.1l0.9-.6S731.6,285,733.6,287.7Z" transform="translate(-96.7 -79.8)" fill="#ecd9ae"/><g opacity="0.6"><path d="M731.6,293.1c-6.2,13.2-25.8,37.7-55.3,25.5-19.5,52.2-81.3,53-107.5,24.8-38.9,23.5-62,2.2-67.1-3.4l-9.5,2.1c1-2.4,3.5-4.5,9.7-4.3h1.4l2.2,1.2a59.9,59.9,0,0,0,62.1-2.4,3.9,3.9,0,0,1,4-.2c7.4,3.9,32.7,16.4,47.3,14.2,16.7-2.6,34.9-11.8,53.3-37.5a3.9,3.9,0,0,1,4.3-1.5C714.2,323,731.2,293.8,731.6,293.1Z" transform="translate(-96.7 -79.8)" fill="#dbc6a1"/></g><polygon points="646 205.7 640.7 206.9 636.8 207.8 628.4 209.7 575 221.8 558.9 225.4 558.9 225.4 485 242.1 467.6 246 420 256.7 408.7 259.3 404.9 260.1 395.4 262.2 395.3 262.3 390 263.5 388.8 257.9 394.1 256.8 639.5 201.4 644.8 200.2 646 205.7" fill="#d98537"/><circle cx="486.2" cy="340.6" r="6.1" transform="translate(-158 31.3) rotate(-12.3)" fill="#cc5b3d"/><circle cx="742.1" cy="282.8" r="6.1" transform="translate(-139.9 84.4) rotate(-12.3)" fill="#cc5b3d"/><path d="M491.1,448.4s71.4,94.8,14.5,203.3c74.5-37.5,182.5-36.4,240-8.5,71-145.7,0-249.1,0-249.1h-3.3s-6.5,20.2-25,23.1-30.7-10.9-30.7-10.9l-3,.5s-4.4,16.5-26.6,20.9-35.9-8.8-35.9-8.8l-3.2.8s-3,15.8-30.4,22.4-33.1-8.1-33.1-8.1l-3.5,1s-3,12.5-23,16.3-31.2-4.2-31.2-4.2Z" transform="translate(-96.7 -79.8)" fill="#ecd9ae"/><polygon points="661.6 311.4 385.2 372 384 366.4 660.4 305.9 661.6 311.4" fill="#d98537"/><circle cx="476.7" cy="450.1" r="6.1" transform="translate(-181.5 31.8) rotate(-12.3)" fill="#cc5b3d"/><circle cx="757.7" cy="388.5" r="6.1" transform="translate(-162 90.2) rotate(-12.3)" fill="#cc5b3d"/><g opacity="0.5"><path d="M771.1,570.6a317.4,317.4,0,0,1-25.4,72.5c-57.5-27.9-165.6-29-240,8.5a192.4,192.4,0,0,0,18.2-50.6,183.7,183.7,0,0,0,3.3-49.1c28.4,9.3,70.4,17.4,125.9,12.8,72.7-6,108-38.5,123.9-60.9A267.5,267.5,0,0,1,771.1,570.6Z" transform="translate(-96.7 -79.8)" fill="#e5d2ac"/></g><path d="M771.1,570.6a317.4,317.4,0,0,1-25.4,72.5c-57.5-27.9-165.6-29-240,8.5a192.4,192.4,0,0,0,18.2-50.6c22.2,4.8,60.4,9,123,6.1C723.7,603.7,757,584.1,771.1,570.6Z" transform="translate(-96.7 -79.8)" fill="#dbc6a1"/><path d="M188,399s-34.6,6.9-49.2,30.6c-3,5.3,15.3-.5,21,7,4-8.1,14.5-12.4,20.6-8.2s13.4,4.3,15,2.6-1.5-2.5-1.5-2.5-8.9.4-11.6-7.9,3.9-18.5,6.3-19.1Z" transform="translate(-96.7 -79.8)" fill="#4c2420"/><path d="M149.5,432.5s8.6-2.5,12.1,6.3-3.1,12.3-16.1,14-40.9,12.1-48,22.9c-2.7,1,2.5-9.7,8.4-14.2s28-14.6,34.2-17.4S155.5,433.8,149.5,432.5Z" transform="translate(-96.7 -79.8)" fill="#51312f"/><polygon points="91.1 309 112.9 395.8 107.4 395.8 86.9 309 91.1 309" fill="#9b633a"/><circle cx="88.3" cy="305.8" r="7.3" fill="#b8592b"/><circle cx="88.3" cy="304.6" r="5.1" fill="#c7663c"/><path d="M571.5,133.8a1.7,1.7,0,0,1,.6,2.3l-0.8,1.5a1.7,1.7,0,0,1-2.3.6l-2.7-1.5h-0.1l-11.5,6,7.6,1.9h0.1l2.2-2.1a1.7,1.7,0,0,1,2.4.1l1.2,1.3a1.7,1.7,0,0,1-.1,2.4l-2,1.8,0.9,2.6a1.7,1.7,0,0,1-1,2.1l-1.6.6a1.7,1.7,0,0,1-2.1-1l-1-2.9h0L548.4,146,537,152s0,0.1,0,.1l-0.3,3a1.7,1.7,0,0,1-1.8,1.5l-1.7-.2a1.7,1.7,0,0,1-1.5-1.8l0.2-2.7-2.4-1.3a1.7,1.7,0,0,1-.6-2.3l0.8-1.5a1.7,1.7,0,0,1,2.3-.6l2.7,1.5h0.1l6.7-3.5-12.4-3.1h-0.1l-2.2,2.1a1.7,1.7,0,0,1-2.4-.1l-1.2-1.3a1.7,1.7,0,0,1,.1-2.4l2-1.8-0.9-2.6a1.7,1.7,0,0,1,1.1-2.1l1.6-.6a1.7,1.7,0,0,1,2.1,1.1l1,2.9h0l15.3,3.8,2.2,0.6,2.3-1.2,13.9-7.3h0l0.3-3a1.7,1.7,0,0,1,1.8-1.5l1.7,0.2a1.7,1.7,0,0,1,1.5,1.8l-0.2,2.7Z" transform="translate(-96.7 -79.8)" fill="#ecd9ae"/><path d="M530.5,119.9c-7.3-21.4,30.3-25.8,28.6-4.4-0.2,3.1-1.5,4.4-.5,6.5,2.5,5-5.7,5.3-5,7.3,1.5,3.7-2.4,4.9-6.3,5.4s-7.5.9-7.6-3.4c0-2.3-7.5.4-6.7-5.2C533.4,123.7,531.6,123.2,530.5,119.9Zm24.2,2c0.1-2-3.5-5.5-4.9-3.9a5.5,5.5,0,0,0-.4,5.6C550.2,125,554.5,123.4,554.6,122Zm-6.2,7.8c0.8-.7-1.4-3.7-2.5-3.5s-2.4,3.4-1.5,4A4.6,4.6,0,0,0,548.5,129.7Zm-6.4-5.1a5.5,5.5,0,0,0-1.9-5.3c-1.8-1.1-4.4,3.3-3.7,5.1S541.5,126.2,542.1,124.6Z" transform="translate(-96.7 -79.8)" fill="#ecd9ae"/><path d="M939,444.6s33.1,58.2,3.1,128.5c-57.3-18-118-3-142.7,19,12.3-65.3-5.7-112.2-5.7-112.2l3.4-1.3s9,6.8,23.6,3,13.3-12.2,13.3-12.2l4.3-1a35.1,35.1,0,0,0,25,2.2c14.3-3.9,18.5-12.4,18.5-12.4l4.5-2s11.2,6.4,30.7,1.9,17.8-11.5,17.8-11.5Z" transform="translate(-96.7 -79.8)" fill="#ecd9ae"/><g opacity="0.5"><path d="M954,526.6a151.9,151.9,0,0,1-3.5,21.2,157.3,157.3,0,0,1-8.4,25.3c-57.3-18-118-3-142.7,19a247.2,247.2,0,0,0,4.3-46.7c0-5.4-.2-10.6-0.5-15.4C872.1,565.6,934.6,537.3,954,526.6Z" transform="translate(-96.7 -79.8)" fill="#e5d2ac"/></g><path d="M950.5,547.8a157.3,157.3,0,0,1-8.4,25.3c-57.3-18-118-3-142.7,19a247.2,247.2,0,0,0,4.3-46.7c12.3,4.7,32.7,10.3,63.1,12.2C908.2,560.2,937.8,552.1,950.5,547.8Z" transform="translate(-96.7 -79.8)" fill="#dbc6a1"/><polygon points="859.3 363.3 693 401.4 692 397.2 858.4 359.2 859.3 363.3" fill="#d98537"/><circle cx="785.7" cy="479.9" r="4.6" transform="translate(-180.8 98.2) rotate(-12.3)" fill="#cc5b3d"/><circle cx="955.6" cy="441.1" r="4.6" transform="translate(-168.7 133.4) rotate(-12.3)" fill="#cc5b3d"/><path d="M921.4,376.8s-10.5,14.9-40.4,7.9a17.8,17.8,0,0,0-4.6,1.9s-3.4,9.3-15.2,12.1-26.4-3.1-26.4-3.1l-4.1,1.5s-3.6,9.2-17.6,12.4-22.9-4.2-22.9-4.2l-3.7,1.5s5.9,36.8,51.8,13.9c18.4,10.6,42.3,2,47.6-12.6,12,4.4,38.3-7.9,40.8-33.1C924.4,374.4,921.4,376.8,921.4,376.8Z" transform="translate(-96.7 -79.8)" fill="#ecd9ae"/><path d="M924.8,383.3c-6.6,19.6-28.4,28.8-39,24.9-5.4,14.5-29.3,23.2-47.6,12.6-25.7,12.8-38.9,6.9-45.5-.8h0c12.9,5.6,27.1,4,42.3-5.8a5.5,5.5,0,0,1,4.8-.5c13.8,4.6,30.9-.8,41.3-10.1a5.2,5.2,0,0,1,4.5-1.2C905.3,405.9,924.2,384,924.8,383.3Z" transform="translate(-96.7 -79.8)" fill="#dbc6a1"/><polygon points="842.1 294.5 686.5 329.6 685.6 325.4 841.2 290.3 842.1 294.5" fill="#d98537"/><circle cx="779.3" cy="408.2" r="4.6" transform="translate(-165.7 95.2) rotate(-12.3)" fill="#cc5b3d"/><circle cx="938.3" cy="372.2" r="4.6" transform="translate(-154.4 128.2) rotate(-12.3)" fill="#cc5b3d"/><path d="M458.2,343.3c-8.2,24.4-26.4,35.5-52.1,37.3-6,48-55,67.3-96.6,54-17.7,30.2-44.2,27.8-61.5,22a79.2,79.2,0,0,1-17.2-8.2s1-3.5,3.3-4.4c46.8,1.9,63-41.6,63-41.6s0-2,3.8-4.5c60.8,3.3,75-47.2,75-47.2s1.8-4.7,5.8-5c70.3,5.3,75.5-49.7,75.5-49.7s1.8-6,5.2-5.4C464.2,312.6,462.7,329.9,458.2,343.3Z" transform="translate(-96.7 -79.8)" fill="#ecd9ae"/><g opacity="0.6"><path d="M458.2,343.3h0c-8.2,24.4-26.4,35.5-52.1,37.3-6,48-55,67.3-96.6,54-17.7,30.2-44.2,27.8-61.5,22,32.7,0.6,50.9-22.4,56.4-30.7,40.3,14,81.4-22.2,94.9-52.7C432.1,377.5,458.2,343.3,458.2,343.3Z" transform="translate(-96.7 -79.8)" fill="#dbc6a1"/></g><polygon points="371.4 208.7 366.9 211.7 363.6 213.9 356.4 218.6 286.2 268.3 272.4 277.4 272.4 277.4 209.2 319.1 194.3 328.8 153.5 355.7 143.9 362.1 140.6 364.2 132.5 369.6 132.4 369.6 127.9 372.6 124.8 367.9 129.3 364.9 363.8 207 368.4 204 371.4 208.7" fill="#d98537"/><circle cx="223.1" cy="450.1" r="6.1" transform="translate(-305.7 113.9) rotate(-33)" fill="#cc5b3d"/><circle cx="466.6" cy="286.2" r="6.1" transform="translate(-177.3 220) rotate(-33)" fill="#cc5b3d"/><g opacity="0.45"><path d="M1158,555.6c-43.5,2-99.3,2.2-145.2-5.6-10.2-16.1-17.1-35.8-21.9-54.4C1013,523.3,1060.1,556.8,1158,555.6Z" transform="translate(-96.7 -79.8)" fill="#dbc6a1"/></g><path d="M150.9,626.9c-0.5-.3-1,0.2-0.9.7a10.8,10.8,0,0,0,.5,1.4,3.3,3.3,0,0,1,0,2,2.8,2.8,0,0,1-2.7,2,2.1,2.1,0,0,1-2.2-2,2.5,2.5,0,0,1,1.4-2.3,0.4,0.4,0,0,0-.2-0.7c-1.4.1-2.2,1.5-2.3,2.8a3.1,3.1,0,0,0,2.6,3.3,4,4,0,0,0,4.3-2C152.3,630.5,152.3,627.9,150.9,626.9Z" transform="translate(-96.7 -79.8)" fill="#a8907b"/><path d="M160,527.9s0.6,6.9-3,7.1c3.4,2.8.3,6.6-.8,7.7,3,3.2,1.2,5.5-.7,7.4s-7.1-2.5-3-8.2a5.7,5.7,0,0,1,1.4-7.5c-2.6-2.2.4-8,1-9S160,527.9,160,527.9Z" transform="translate(-96.7 -79.8)" fill="#a8907b"/><path d="M200.7,530.4l-48-8.8a2.1,2.1,0,0,0-2.5,1.9v1a2.1,2.1,0,0,0,1.7,2.3L198.6,537Z" transform="translate(-96.7 -79.8)" fill="#b97943"/><path d="M158.8,555.8s0.2-5.9-4.3-6.4-4.4,6.4-4.4,6.4h8.7Z" transform="translate(-96.7 -79.8)" fill="#895634"/><path d="M133,573.4s0.2,36.2,6.4,51.1c5.1,2,20.3,2.4,20.3,2.4s14.2-26.7,16.7-47.8C164.9,564.5,133,573.4,133,573.4Z" transform="translate(-96.7 -79.8)" fill="#f9da78"/><path d="M153.4,592.9c-6.4-2.1-15.9,20.6-9.8,32.3,3.3,0.8,12.4,1.2,12.4,1.2S168.7,597.9,153.4,592.9Z" transform="translate(-96.7 -79.8)" fill="#fbb040"/><path d="M176.6,574.1c0.6-6.7-5.7-18.3-19.3-19.7s-22.1,8.6-22.9,15.3c-3.9,1-6.5,3.5-6.2,4.4s19.9,3.7,26.6,4.4,26.5,1.9,26.9,1.1S180.1,575.9,176.6,574.1Z" transform="translate(-96.7 -79.8)" fill="#895634"/><path d="M162.3,627.4c-0.3-1.9-7.6-2.7-12.2-3.2h0c-4.6-.5-11.9-1.1-12.6.6s1.5,3.4,12.1,4.5S162.6,629.2,162.3,627.4Z" transform="translate(-96.7 -79.8)" fill="#895634"/><path d="M143.8,575.1s-2.3,32.9,2,49.3c1,4,2.6.9,2.6,0.9s-2.6-29.2-.8-49.2C146.5,572.8,143.8,575.1,143.8,575.1Z" transform="translate(-96.7 -79.8)" fill="#895634"/><path d="M135.1,574.5s-0.5,32.7,5.3,49.2c0.1,1.5-2.3.6-2.3,0.6a143.9,143.9,0,0,1-6.8-50.8C131.9,572.4,135.1,574.5,135.1,574.5Z" transform="translate(-96.7 -79.8)" fill="#895634"/><path d="M165.7,577.4s-4.5,32.6-12,47.8c-1.8,3.7-2.7.4-2.7,0.4s8.4-28,10.7-48C163.4,574.5,165.7,577.4,165.7,577.4Z" transform="translate(-96.7 -79.8)" fill="#895634"/><path d="M174.3,578.6s-6.2,32.2-15.2,47.1c-0.4,1.4,2.2,1,2.2,1a143.9,143.9,0,0,0,17.1-48.4C177.9,577.2,174.3,578.6,174.3,578.6Z" transform="translate(-96.7 -79.8)" fill="#895634"/><path d="M133,587.9s20.8,4.2,40.6,4.2c0.5,1.1-.3,3.3-0.3,3.3s-25.1.5-39.8-4.1A20.1,20.1,0,0,1,133,587.9Z" transform="translate(-96.7 -79.8)" fill="#895634"/><path d="M135.2,608.1s16.4,3.7,32.1,3.3a8,8,0,0,1-.3,3.3s-19.9,1.1-31.5-3.2A24.7,24.7,0,0,1,135.2,608.1Z" transform="translate(-96.7 -79.8)" fill="#895634"/><path d="M158.7,556.7c-6.8-1.8-16.7,1.4-19.3,9.1s31.7,10.5,31.7,3.8S165.6,558.5,158.7,556.7Z" transform="translate(-96.7 -79.8)" fill="#9b6445"/><polygon points="116.6 416.6 116.6 453.6 125.2 456.1 126.8 422 116.6 416.6" fill="#895634"/><polygon points="159.6 437.4 159.6 474.5 168.2 476.9 169.8 442.9 159.6 437.4" fill="#895634"/><polygon points="202.6 458.3 202.6 495.3 211.2 497.7 212.8 463.7 202.6 458.3" fill="#895634"/><polygon points="245.6 479.3 245.6 516.3 254.2 518.7 255.8 484.7 245.6 479.3" fill="#895634"/><polygon points="288.6 500.1 288.6 537.1 297.1 539.6 298.7 505.5 288.6 500.1" fill="#895634"/><polygon points="324.9 521.5 324.9 558.6 333.5 561 335.1 527 324.9 521.5" fill="#895634"/><path d="M932.9,675.4s-22.6,56.3-67.2,63c13.3-26.2,30.5-56.1,30.5-56.1Z" transform="translate(-96.7 -79.8)" fill="#a36133"/><path d="M980.1,637.4a54.8,54.8,0,0,1-30.9,35c-25.4,11-60.5,18.2-60.5,18.2l18.1-31.5Z" transform="translate(-96.7 -79.8)" fill="#b2703f"/><polygon points="452.7 618 454.5 656.3 446.2 653 445.7 615.3 452.7 618" fill="#9b633a"/><polygon points="351.2 604 353 642.3 344.7 639 344.2 601.3 351.2 604" fill="#9b633a"/><polygon points="419 612.5 420.3 657.1 412 653.4 412 609.4 419 612.5" fill="#9b633a"/><polygon points="384.9 609.5 386.1 654.1 377.8 650.4 377.9 606.4 384.9 609.5" fill="#9b633a"/><path d="M423.6,671.6s116,17,134.2,19.5,13.3,11.5,0,9.5-130.3-17.5-130.3-17.5Z" transform="translate(-96.7 -79.8)" fill="#aa513c"/><polygon points="813.8 529.6 808.9 567.5 814.6 565.9 821 527.4 813.8 529.6" fill="#9b633a"/><polygon points="787.8 536.3 782.9 574.2 788.6 572.5 795 534.1 787.8 536.3" fill="#9b633a"/><polygon points="761.8 542.9 756.9 580.9 762.5 579.2 769 540.8 761.8 542.9" fill="#9b633a"/><polygon points="735.7 549.6 730.9 587.6 736.5 585.9 743 547.5 735.7 549.6" fill="#9b633a"/><polygon points="709.7 556.3 704.9 594.3 710.5 592.6 716.9 554.2 709.7 556.3" fill="#9b633a"/><path d="M252.9,692.1c-11.2-3.5-29.2-12.5-33.7-14.8s-5.8-10.7-6-26.3,0-97.6,0-97.6l216.6,97s-8.9,59.2,39,80.7C415.4,728.5,301,707.4,252.9,692.1Z" transform="translate(-96.7 -79.8)" fill="#b97943"/><g opacity="0.5"><path d="M429.9,650.4a83.7,83.7,0,0,0-.7,11.4l-216-97.5c0-6.7,0-10.9,0-10.9Z" transform="translate(-96.7 -79.8)" fill="#895634"/></g><g opacity="0.15" style="mix-blend-mode:screen"><path d="M213.3,553.4L274,580.5l-0.8,38.4c-25-10.3-46.1-19.5-59.9-25.5C213.2,572.1,213.3,553.4,213.3,553.4Z" transform="translate(-96.7 -79.8)" fill="#cc824a"/></g><g opacity="0.15" style="mix-blend-mode:screen"><path d="M430.4,677.1c-10.5-3.2-21.3-6.7-32.3-10.5l1-30.1,30.7,13.8A98.6,98.6,0,0,0,430.4,677.1Z" transform="translate(-96.7 -79.8)" fill="#cc824a"/></g><g opacity="0.1" style="mix-blend-mode:screen"><path d="M213.2,637.2c15.4,6.2,31.1,11.9,46.7,17.3l-0.5,39.6-6.4-2c-11.2-3.5-29.2-12.5-33.7-14.8s-5.8-10.7-6-26.3C213.3,648.2,213.2,643.3,213.2,637.2Z" transform="translate(-96.7 -79.8)" fill="#cc824a"/></g><g opacity="0.08" style="mix-blend-mode:screen"><path d="M429.4,727.4c-20.7-2.6-44.2-6.3-67.5-10.5v-32c25.6,6.6,47.9,11.7,64.5,15.3Z" transform="translate(-96.7 -79.8)" fill="#cc824a"/></g><g opacity="0.09" style="mix-blend-mode:screen"><path d="M438.6,702.8c-24.9-5.1-72.7-15.7-126.6-31.7l2.9-35.2c37.4,14.8,78.6,30,115.5,41.3A81.4,81.4,0,0,0,438.6,702.8Z" transform="translate(-96.7 -79.8)" fill="#cc824a"/></g><path d="M915.8,643.1s-70.7,188-184.7,259-446,131-482-211c122,32,309.3,66.3,522,30.3,11.7-17.7,27.3-49.7,27.3-49.7S860.4,660.1,915.8,643.1Z" transform="translate(-96.7 -79.8)" fill="#b97943"/><g opacity="0.09" style="mix-blend-mode:screen"><path d="M897.2,686.2c-8.2,17.5-19,39.1-32.2,62q-24.9,5.1-49,9.2l-26,4.2q-34.3,5.3-67.1,8.8c-35.8,3.9-70.1,6.3-102.8,7.6-25.2,1-49.3,1.2-72.4,1s-45.4-1.1-66.4-2.4c-28.1-1.7-54.1-4.1-77.9-7-20.4-2.5-39.2-5.2-56.1-8.1-41-6.9-71.5-14.4-89.8-19.4a461.6,461.6,0,0,1-8.1-51c122,32,309.3,66.3,522,30.3C818.4,714.6,855.6,703.6,897.2,686.2Z" transform="translate(-96.7 -79.8)" fill="#cc824a"/></g><path d="M347.8,761.6c0-.4-0.7-0.6-0.8-0.1a158.8,158.8,0,0,0-1.7,24.4,0.8,0.8,0,0,0,1.6,0A157.8,157.8,0,0,0,347.8,761.6Z" transform="translate(-96.7 -79.8)" fill="#b97943"/><path d="M482.1,778.1a0.5,0.5,0,0,0-1,0c-0.5,6.9-1.5,14.4-.8,21.2,0,0.4.7,0.6,0.8,0.1C482.5,792.7,482.1,785,482.1,778.1Z" transform="translate(-96.7 -79.8)" fill="#b97943"/><path d="M545.7,750c-0.1-.4-0.7-0.3-0.6.1a231.3,231.3,0,0,0,2.2,27.4c0.1,0.6,1,.4,1-0.1A231.2,231.2,0,0,0,545.7,750Z" transform="translate(-96.7 -79.8)" fill="#b97943"/><path d="M620.7,780.4a0.4,0.4,0,0,0-.8,0c-0.5,6.1-1,13,0,19.1a0.5,0.5,0,0,0,.9,0C621.8,793.4,621.2,786.5,620.7,780.4Z" transform="translate(-96.7 -79.8)" fill="#b97943"/><path d="M721.9,743.8c-0.1-.3-0.6-0.2-0.6.1-0.5,8.3.4,17.2,1.1,25.5a0.5,0.5,0,0,0,1,0C723.4,761,723.4,752.1,721.9,743.8Z" transform="translate(-96.7 -79.8)" fill="#b97943"/><path d="M790,763c-1.1,7.1-2.4,14.4-3.1,21.6-0.1.7,1,.8,1.1,0.2a97.1,97.1,0,0,0,2.6-21.6C790.7,762.7,790.1,762.7,790,763Z" transform="translate(-96.7 -79.8)" fill="#b97943"/><path d="M813.4,729.3a0.3,0.3,0,0,0-.6.1,201,201,0,0,0,3.1,25.9,0.4,0.4,0,0,0,.8-0.1A201,201,0,0,0,813.4,729.3Z" transform="translate(-96.7 -79.8)" fill="#b97943"/><path d="M405.7,743a97.5,97.5,0,0,0-1.9,23.6,0.4,0.4,0,0,0,.8,0c0.4-7.9,1.1-15.7,1.6-23.5A0.3,0.3,0,0,0,405.7,743Z" transform="translate(-96.7 -79.8)" fill="#b97943"/><g opacity="0.09" style="mix-blend-mode:screen"><path d="M547.5,779c-23.2-.3-45.4-1.1-66.4-2.4-28.1-1.7-54.1-4.1-77.9-7l3.9-38.5,137,5.9Z" transform="translate(-96.7 -79.8)" fill="#cc824a"/></g><g opacity="0.09" style="mix-blend-mode:screen"><path d="M815.9,757.4l-26,4.2q-34.3,5.3-67.1,8.8l-2-34.3,90.4-19.4Z" transform="translate(-96.7 -79.8)" fill="#cc824a"/></g><g opacity="0.15" style="mix-blend-mode:screen"><path d="M864.9,748.2c-7.9,13.7-16.6,27.9-26.1,42h-0.4c-45.8,10.7-147.8,28.7-296,22.1q-21.7-1-41.8-2.3h0l-19.5-1.4c-54.3-4.2-99.7-10.1-136.2-16.3-33.8-5.7-60-11.5-78.5-16.1q-5.2-16.2-9.1-34.1c18.4,5,48.9,12.5,89.8,19.4a1261.2,1261.2,0,0,0,134,15.1C523,779.1,569.5,780,620,778a1494.6,1494.6,0,0,0,170-16.4Q826.6,756,864.9,748.2Z" transform="translate(-96.7 -79.8)" fill="#cc824a"/></g><g opacity="0.09" style="mix-blend-mode:screen"><path d="M347.1,761.5l-2.2,30.9c-33.8-5.7-60-11.5-78.5-16.1q-5.2-16.2-9.1-34.1C275.6,747.2,306.1,754.6,347.1,761.5Z" transform="translate(-96.7 -79.8)" fill="#cc824a"/></g><g opacity="0.09" style="mix-blend-mode:screen"><path d="M621.1,812.8l-120.5-2.8h0l-19.5-1.4v-32C523,779.1,569.5,780,620,778Z" transform="translate(-96.7 -79.8)" fill="#cc824a"/></g><g opacity="0.09" style="mix-blend-mode:screen"><path d="M864.9,748.2c-7.9,13.7-16.6,27.9-26.1,42h-0.4l-51.7,2.8,3.2-31.4Q826.6,756,864.9,748.2Z" transform="translate(-96.7 -79.8)" fill="#cc824a"/></g><g opacity="0.05" style="mix-blend-mode:multiply"><path d="M841.8,785.8a557,557,0,0,1-34.1,46.4h0C575.2,869.9,373.2,841,286,824a305,305,0,0,1-17.4-41c47,9.2,143.3,25.1,265,29.1C696.8,817.4,825.8,789.4,841.8,785.8Z" transform="translate(-96.7 -79.8)" fill="#cc824a"/></g><g opacity="0.2" style="mix-blend-mode:screen"><path d="M447.9,810.2v35.6c-53.3-4.2-98.5-10.5-133.1-16.4l-5.4-39c24.8,4.1,55.4,8.5,90.5,12.3Z" transform="translate(-96.7 -79.8)" fill="#cc824a"/></g><g opacity="0.09" style="mix-blend-mode:screen"><path d="M751.6,804.3l-9.3,36.8a1487.8,1487.8,0,0,1-154,9.5l-3.7-37.5,7.6-.4c38.3-.5,73.9-2.6,105.5-5.5Z" transform="translate(-96.7 -79.8)" fill="#cc824a"/></g><g opacity="0.35"><path d="M748.9,811.7a190.2,190.2,0,0,0-7.1,29.1,0.7,0.7,0,0,0,1.3.4,190.4,190.4,0,0,0,6.5-29.3A0.4,0.4,0,0,0,748.9,811.7Z" transform="translate(-96.7 -79.8)" fill="#9b633a"/><path d="M585.5,823.6a130.2,130.2,0,0,0,1.4,26.9c0.1,0.9,1.5.6,1.5-.2a130,130,0,0,0-2-26.8C586.4,822.9,585.5,823.1,585.5,823.6Z" transform="translate(-96.7 -79.8)" fill="#9b633a"/><path d="M448.1,820.5a111.4,111.4,0,0,0-2,26.3c0,0.8,1.3,1,1.4.2a111.8,111.8,0,0,0,1.3-26.4C448.8,820.2,448.2,820.1,448.1,820.5Z" transform="translate(-96.7 -79.8)" fill="#9b633a"/><path d="M311.2,801.9c-0.7,9.1.9,19.3,2.2,28.4,0.1,1,1.7.7,1.7-.2-0.4-9.1-.9-19.4-3.3-28.2A0.3,0.3,0,0,0,311.2,801.9Z" transform="translate(-96.7 -79.8)" fill="#9b633a"/></g><g opacity="0.3"><path d="M892.4,696.2c-29.6,61.1-86,159-161.3,205.9C617.6,972.8,288,1032.6,249.6,695.6l52.9,14.7s30.3,201.2,211.7,224.5S827.7,818.3,869.6,703.2C876,701,884.7,698.4,892.4,696.2Z" transform="translate(-96.7 -79.8)" fill="#9b633a"/></g><g opacity="0.3"><path d="M570.2,954.2c-135.8,15.7-295.6-31-320.8-260.8,19,4.7,84.8,20.5,142.3,28.5,0,0-17.5,64.5,18.3,84.3C417.7,856.4,415.7,935.1,570.2,954.2Z" transform="translate(-96.7 -79.8)" fill="#9b633a"/></g><path d="M915.8,643.1s-7.7,20.6-22.2,50.8q-3.8,7.9-8.2,16.5c-15.8,4.5-49.7,13.4-95.2,21.8-51.7,9.6-128.2,20.2-212.8,20.2q-17,0-34.4-.6c-156.7-5.5-261-34.4-291.7-44q-1.1-7.5-1.9-15.3l-0.2-1.4c114.7,30.1,287,62.2,483.9,36.1q18.9-2.5,38.1-5.7v-0.2c11.7-17.7,27.2-49.5,27.2-49.5S860.4,660.1,915.8,643.1Z" transform="translate(-96.7 -79.8)" fill="#895634"/><path d="M915.8,643.1s-8.1,21.5-23.2,52.8c-53.7,11.8-121.4,25.5-121.4,25.5,11.7-17.7,27.3-49.7,27.3-49.7S860.4,660.1,915.8,643.1Z" transform="translate(-96.7 -79.8)" fill="#b97943"/><path d="M842.7,784.3q-5.4,8.1-11.1,16.3a1338.2,1338.2,0,0,1-218.4,25.5q-23.1.8-46.3,0.8A1330.2,1330.2,0,0,1,428,819.6c-77.2-8.1-132.5-21.1-156.1-27.3q-2.9-7.8-5.6-16c13.4,3.9,73.3,20.1,163.5,29.5,94.5,9.9,242.4,14.2,410.7-21.4A7.1,7.1,0,0,1,842.7,784.3Z" transform="translate(-96.7 -79.8)" fill="#895634"/><path d="M287.4,787.5s-4.7,18.2,12.5,22.1,18.1-15.3,18.1-15.3Z" transform="translate(-96.7 -79.8)" fill="#895634"/><path d="M290,788.4s-3.9,15.1,10.3,18.3,15-12.7,15-12.7Z" transform="translate(-96.7 -79.8)" fill="#b8592b"/><path d="M295.5,794.3l14.2,2.9a1.4,1.4,0,0,1,.9,1.9c-1.2,2.3-4,6.1-9.2,5.1s-6.9-5.6-7.5-8.3A1.4,1.4,0,0,1,295.5,794.3Z" transform="translate(-96.7 -79.8)" fill="#c7663c"/><path d="M336.5,797.8s-3.8,18.4,13.5,21.5,17.4-16.2,17.4-16.2Z" transform="translate(-96.7 -79.8)" fill="#895634"/><path d="M339.1,798.7s-3.2,15.3,11.2,17.8,14.4-13.4,14.4-13.4Z" transform="translate(-96.7 -79.8)" fill="#b8592b"/><path d="M344.8,804.2l14.4,2.2a1.4,1.4,0,0,1,1,1.9c-1.1,2.3-3.7,6.3-9,5.5s-7.2-5.2-7.9-7.9A1.4,1.4,0,0,1,344.8,804.2Z" transform="translate(-96.7 -79.8)" fill="#c7663c"/><path d="M443.1,813.1s-2,18.7,15.6,20.1,15.7-17.8,15.7-17.8Z" transform="translate(-96.7 -79.8)" fill="#895634"/><path d="M445.8,813.6s-1.7,15.5,12.9,16.6,13-14.7,13-14.7Z" transform="translate(-96.7 -79.8)" fill="#b8592b"/><path d="M452,818.6l14.5,0.8a1.4,1.4,0,0,1,1.2,1.8c-0.8,2.4-3.1,6.6-8.4,6.4s-7.7-4.5-8.7-7.1A1.4,1.4,0,0,1,452,818.6Z" transform="translate(-96.7 -79.8)" fill="#c7663c"/><path d="M389.1,807s-2.7,18.6,14.9,20.6,16.3-17.2,16.3-17.2Z" transform="translate(-96.7 -79.8)" fill="#895634"/><path d="M391.8,807.7s-2.2,15.4,12.3,17.1,13.5-14.3,13.5-14.3Z" transform="translate(-96.7 -79.8)" fill="#b8592b"/><path d="M397.9,812.9l14.5,1.3a1.4,1.4,0,0,1,1.2,1.8c-0.9,2.4-3.3,6.5-8.6,6.1s-7.5-4.8-8.4-7.4A1.4,1.4,0,0,1,397.9,812.9Z" transform="translate(-96.7 -79.8)" fill="#c7663c"/><path d="M929.6,592.3c-4.6,1.3-126.2,33.9-133.5,35.2s-8,15,.7,13,124.2-30.7,130.5-32.7S936.9,590.2,929.6,592.3Z" transform="translate(-96.7 -79.8)" fill="#aa513c"/><path d="M567,820.9A1330.7,1330.7,0,0,1,428,813.7C324.4,802.8,260,783,259.4,782.8a7,7,0,0,1,4.2-13.4c0.6,0.2,64,19.6,166.4,30.4,94.4,9.9,242.4,14.2,410.7-21.4a7,7,0,1,1,2.9,13.7,1337.9,1337.9,0,0,1-230.3,28Q590.1,820.9,567,820.9Z" transform="translate(-96.7 -79.8)" fill="#aa513c"/><path d="M577.3,746.4q-17,0-34.4-.6c-187.6-6.6-300-46.7-301.1-47.1a7,7,0,1,1,4.8-13.2c1.2,0.4,111.8,39.7,296.9,46.3s346-43.1,347.6-43.6a7,7,0,0,1,4.2,13.4c-0.4.1-41.5,12.9-105,24.7C738.4,735.8,661.9,746.4,577.3,746.4Z" transform="translate(-96.7 -79.8)" fill="#aa513c"/><path d="M567.1,815.5a1327.1,1327.1,0,0,1-138.6-7.2c-103.3-10.9-167.4-30.5-168-30.7a3.5,3.5,0,0,1,2.1-6.7c0.6,0.2,64.2,19.7,166.9,30.5,94.7,9.9,243.1,14.3,412-21.4a3.5,3.5,0,1,1,1.4,6.8,1334.3,1334.3,0,0,1-229.7,27.9Q590.1,815.5,567.1,815.5Z" transform="translate(-96.7 -79.8)" fill="#af5d4a"/><path d="M576.9,741.1q-17,0-34.3-.6c-187.1-6.6-299-46.5-300.1-46.9a3.5,3.5,0,0,1,2.4-6.6C246,687.5,357,727,542.8,733.5S890,690.3,891.6,689.7a3.5,3.5,0,0,1,2.1,6.7c-0.4.1-41.3,12.8-104.6,24.6C737.5,730.5,661.3,741.1,576.9,741.1Z" transform="translate(-96.7 -79.8)" fill="#af5d4a"/><g opacity="0.15" style="mix-blend-mode:screen"><path d="M807.7,832.1c-6.7,8.2-13.7,16.1-21,23.7-59.9,11.1-247,38.6-479.5,2.6A256.1,256.1,0,0,1,286,824C373.2,841,575.3,869.9,807.7,832.1Z" transform="translate(-96.7 -79.8)" fill="#cc824a"/></g><g opacity="0.09" style="mix-blend-mode:screen"><path d="M382.1,868.1q-36.5-3.8-74.9-9.7A256.1,256.1,0,0,1,286,824c23.6,4.6,55.6,10.1,94.3,14.9Z" transform="translate(-96.7 -79.8)" fill="#cc824a"/></g><g opacity="0.09" style="mix-blend-mode:screen"><path d="M679,847l-6.2,23.8a1531.1,1531.1,0,0,1-156.7,5.4l-2.6-26.6A1542.5,1542.5,0,0,0,679,847Z" transform="translate(-96.7 -79.8)" fill="#cc824a"/></g><g opacity="0.5"><path d="M380.9,838.5a0.4,0.4,0,0,0-.7.1c-0.2,9.9,1.2,19.8,1.2,29.8a0.8,0.8,0,0,0,1.5,0C382.8,858.6,383,848.1,380.9,838.5Z" transform="translate(-96.7 -79.8)" fill="#9b633a"/><path d="M678.7,846.4a213.9,213.9,0,0,0-6.8,24.3,0.6,0.6,0,0,0,1.1.3,213.9,213.9,0,0,0,6.4-24.4A0.3,0.3,0,0,0,678.7,846.4Z" transform="translate(-96.7 -79.8)" fill="#9b633a"/><path d="M514,848.9c-0.1-.4-0.7-0.3-0.7.1-0.1,9.1,1,18.3,1.7,27.4,0.1,1,1.6,1,1.5,0C515.8,867.2,515.5,857.9,514,848.9Z" transform="translate(-96.7 -79.8)" fill="#9b633a"/></g><path d="M557.5,693.5c-14.2-2.3-112-16.1-116.5-16.9s-5.1,3.8,2.5,5.5,105.6,15.3,110.4,15.6S562.5,694.3,557.5,693.5Z" transform="translate(-96.7 -79.8)" fill="#af5d4a"/><path d="M287.2,826.4l2,3.7h0Z" transform="translate(-96.7 -79.8)" fill="#af5d4a"/><g opacity="0.15" style="mix-blend-mode:screen"><path d="M807.7,832.1l-2.1,2.5,2-2.5h0Z" transform="translate(-96.7 -79.8)" fill="#00aeef"/></g><path d="M302.4,851.5l4.9,6.9Z" transform="translate(-96.7 -79.8)" fill="#cc824a"/><g opacity="0.09" style="mix-blend-mode:screen"><path d="M786.7,855.8a310.8,310.8,0,0,1-41.1,36.4c-95.6,19.9-239.1,30.9-412.1-3.7a231.5,231.5,0,0,1-26.3-30.1C539.7,894.4,726.9,866.9,786.7,855.8Z" transform="translate(-96.7 -79.8)" fill="#cc824a"/></g><path d="M259.3,751l0.7,2.6h0Z" transform="translate(-96.7 -79.8)" fill="#cc824a"/><path d="M260.3,657.6a0.4,0.4,0,0,0-.8,0c-0.3,9.4-.7,18.9-0.5,28.3a0.5,0.5,0,0,0,1,0C260.4,676.5,260.4,667,260.3,657.6Z" transform="translate(-96.7 -79.8)" fill="#ad6d3d"/><path d="M314.4,638.8c-1.7,9.5-2.6,19.2-3.8,28.8-0.1.8,1.2,0.8,1.3,0,1.1-9.5,2.6-19.1,3.1-28.7A0.3,0.3,0,0,0,314.4,638.8Z" transform="translate(-96.7 -79.8)" fill="#ad6d3d"/><path d="M274.4,587.1a0.4,0.4,0,0,0-.8,0c-0.1,8.1-.3,16.2-0.5,24.3,0,0.7,1,.6,1,0A117.1,117.1,0,0,0,274.4,587.1Z" transform="translate(-96.7 -79.8)" fill="#ad6d3d"/><path d="M399.4,641c-1,7-2.1,14-2.6,21.1a0.4,0.4,0,0,0,.7.1c1.2-7,1.7-14.1,2.4-21.1C400.1,640.8,399.5,640.7,399.4,641Z" transform="translate(-96.7 -79.8)" fill="#ad6d3d"/><path d="M427,704.9c-0.1-.5-0.9-0.6-0.8,0a41.5,41.5,0,0,0,2,13.1c0.2,0.4.9,0.4,0.8-.1C428.5,713.5,427.5,709.2,427,704.9Z" transform="translate(-96.7 -79.8)" fill="#ad6d3d"/><path d="M362.2,689.6a0.4,0.4,0,0,0-.8,0,115.8,115.8,0,0,0,.2,17.3,0.3,0.3,0,0,0,.6,0A115.8,115.8,0,0,0,362.2,689.6Z" transform="translate(-96.7 -79.8)" fill="#ad6d3d"/><path d="M211.3,527.5L438.1,642.4a10.1,10.1,0,0,1,5.6,9v0.2c0,7.3-7.6,9.1-14.3,6.1L200.7,551.9a10.1,10.1,0,0,1-5.7-11.3l1.9-6.2A10.1,10.1,0,0,1,211.3,527.5Z" transform="translate(-96.7 -79.8)" fill="#aa513c"/><path d="M436.1,651.2a9.3,9.3,0,0,1-3.7-.9L203.7,544.4a4.1,4.1,0,0,1-2.4-4.4l1.9-6.1v-0.3a4.1,4.1,0,0,1,4-3.3,4.1,4.1,0,0,1,1.8.4L435.9,645.7a4.1,4.1,0,0,1,2.3,3.7v0.2C438.2,650.5,438.2,651.2,436.1,651.2Z" transform="translate(-96.7 -79.8)" fill="#af5d4a"/><path d="M217.6,475.4L440.8,597a10.1,10.1,0,0,1,5.3,9.2v0.2c-0.2,7.3-7.2,7-13.7,3.8L206.9,497.6a10.1,10.1,0,0,1-5.4-11.4l1.4-4.2A10.1,10.1,0,0,1,217.6,475.4Z" transform="translate(-96.7 -79.8)" fill="#aa513c"/><path d="M440.6,604.4a14.1,14.1,0,0,1-5.1-1.6L210.1,490.2a4.1,4.1,0,0,1-2.3-4.5l1.4-4.2v-0.3a4.1,4.1,0,0,1,4-3.2,4,4,0,0,1,1.9.5L438.4,600.3a4.1,4.1,0,0,1,2.2,3.8v0.4Z" transform="translate(-96.7 -79.8)" fill="#af5d4a"/><path d="M1280.4,546.8L915.8,643.1l-7.9,19.3,372.6-111s3-.7,3.2-2.6S1282.3,546.3,1280.4,546.8Z" transform="translate(-96.7 -79.8)" fill="#b97943"/><path d="M691.6,889.3c-60.6,31.1-91.1,50.6-161.1,34.6s-140.2-53.2-213.2-47.1c82.7,96,244.6,102.5,367.2,52.1,34.2-14.1,65.1-32.8,92.7-57.4-33.9-.6-54.9,2.1-85.6,17.9h0Z" transform="translate(-96.7 -79.8)" fill="#26b5dc" opacity="0.75" style="isolation:isolate"/><path d="M696.2,741.4a1.5,1.5,0,0,1-1.3-.8c-19.7-34.9-36.2-82.4-49.2-141.3-10.4-47.1-18.5-101.5-24.2-161.7-9.7-102.5-8.8-187.6-8.8-188.4a1.5,1.5,0,0,1,1.5-1.5h0a1.5,1.5,0,0,1,1.5,1.5c0,0.8-.9,85.8,8.8,188.1,8.9,94.4,28.8,223.4,73.1,301.8a1.5,1.5,0,0,1-.6,2Z" transform="translate(-96.7 -79.8)" fill="#a8907b"/><path d="M781.1,728.9a1.5,1.5,0,0,1-1.3-.7c-58.5-93.9-94.8-217.5-114.9-304.7C643.1,329,635,255.7,635,255a1.5,1.5,0,1,1,3-.3c0.1,0.7,8.2,73.8,29.9,168.1,20.1,87,56.3,210.3,114.5,303.8a1.5,1.5,0,0,1-.5,2.1Z" transform="translate(-96.7 -79.8)" fill="#a8907b"/><path d="M723.5,738.1a1.5,1.5,0,0,1-1.4-.9C668.9,619,643.7,496,631.9,413.5c-12.8-89.3-13-151.5-13-152.1a1.5,1.5,0,0,1,1.5-1.5h0a1.5,1.5,0,0,1,1.5,1.5c0,0.6.2,62.6,13,151.8,11.8,82.2,37,205,90,322.8a1.5,1.5,0,0,1-.8,2h-0.6Z" transform="translate(-96.7 -79.8)" fill="#a8907b"/><path d="M750.6,734.1a1.5,1.5,0,0,1-1.3-.8C695,624.8,664.7,501.5,648.7,417.2c-17.3-91.3-21.7-157.9-21.8-158.6a1.5,1.5,0,0,1,3-.2c0,0.7,4.5,67.1,21.7,158.3C667.6,500.8,697.9,623.8,752,732a1.5,1.5,0,0,1-.7,2Z" transform="translate(-96.7 -79.8)" fill="#a8907b"/><path d="M671.1,685.4a1.5,1.5,0,0,1-.5-2.9c0.4-.2,44.2-16.5,77.3-16.5h0.5a1.5,1.5,0,0,1,0,3h-0.5c-32.6,0-75.8,16.2-76.3,16.3h-0.5Z" transform="translate(-96.7 -79.8)" fill="#a8907b"/><path d="M650.6,615.4a1.5,1.5,0,0,1-.4-3c0.4-.1,37.7-9.3,72.3-6.2a1.5,1.5,0,1,1-.3,3c-34.1-3-70.9,6-71.3,6.1h-0.4Z" transform="translate(-96.7 -79.8)" fill="#a8907b"/><path d="M639.6,562.8a1.5,1.5,0,0,1-.5-2.9c0.3-.1,31.8-11,64.4-6.3a1.5,1.5,0,0,1-.4,3c-31.8-4.6-62.7,6-63,6.1h-0.5Z" transform="translate(-96.7 -79.8)" fill="#a8907b"/><path d="M685.9,500.5h-0.3c-25.3-5.5-55.2,0-55.5,0a1.5,1.5,0,1,1-.5-2.9c0.3-.1,30.7-5.6,56.6,0A1.5,1.5,0,0,1,685.9,500.5Z" transform="translate(-96.7 -79.8)" fill="#a8907b"/><path d="M670.9,443.5h-0.5c-17.8-6.6-46.3,0-46.6.1a1.5,1.5,0,1,1-.7-2.9c1.2-.3,29.7-6.8,48.4.1A1.5,1.5,0,0,1,670.9,443.5Z" transform="translate(-96.7 -79.8)" fill="#a8907b"/><path d="M619.8,401.6a1.5,1.5,0,0,1-.4-2.9c1-.3,23.6-7.1,41.6-3a1.5,1.5,0,0,1-.7,2.9c-17.2-3.9-39.8,2.8-40.1,2.9h-0.4Z" transform="translate(-96.7 -79.8)" fill="#a8907b"/><path d="M617.4,364.8a1.5,1.5,0,0,1-.5-2.9c0.8-.3,20.8-7.2,36.4-3.7a1.5,1.5,0,1,1-.7,2.9c-14.8-3.3-34.6,3.5-34.8,3.6h-0.5Z" transform="translate(-96.7 -79.8)" fill="#a8907b"/><path d="M615.7,329a1.5,1.5,0,0,1-.5-2.9c0.7-.2,18.2-5.8,32.5,0a1.5,1.5,0,1,1-1.1,2.8c-13.3-5.4-30.3,0-30.5,0h-0.5Z" transform="translate(-96.7 -79.8)" fill="#a8907b"/><path d="M614.8,302.2a1.5,1.5,0,0,1-.4-2.9c0.6-.2,14.2-4.2,28.5-1.6a1.5,1.5,0,1,1-.5,3c-13.6-2.5-26.9,1.5-27,1.5h-0.4Z" transform="translate(-96.7 -79.8)" fill="#a8907b"/><path d="M614.3,280.5a1.5,1.5,0,0,1-.4-2.9c0.6-.2,14.4-4.4,25.6-2.3a1.5,1.5,0,1,1-.5,3c-10.5-1.9-24.1,2.2-24.2,2.2h-0.4Z" transform="translate(-96.7 -79.8)" fill="#a8907b"/><path d="M701.2,735.9c-2.2-2.3-5.8-2.2-7.6-1.7s-5.1,2.2-5.8,5.2,2.8,15.4,10.7,13.3S703.3,738.2,701.2,735.9Z" transform="translate(-96.7 -79.8)" fill="#895634"/><path d="M701.4,734.7c-2.1-2.2-5.7-2-7.6-1.5s-5.1,2.1-5.9,5.1,2.6,14.6,10.5,12.5S703.5,736.9,701.4,734.7Z" transform="translate(-96.7 -79.8)" fill="#b8592b"/><path d="M699.9,734.9c-1.5-1.1-4.3-.8-5.7-0.4s-4,1.5-4.8,3.1,1.1,7.9,7.3,6.2S701.3,736,699.9,734.9Z" transform="translate(-96.7 -79.8)" fill="#c7663c"/><path d="M729.1,732.2c-2.2-2.3-5.8-2.2-7.6-1.7s-5.1,2.2-5.8,5.2,2.8,15.4,10.7,13.3S731.2,734.5,729.1,732.2Z" transform="translate(-96.7 -79.8)" fill="#895634"/><path d="M729.3,731c-2.1-2.2-5.7-2-7.6-1.5s-5.1,2.1-5.9,5.1,2.6,14.6,10.5,12.5S731.4,733.1,729.3,731Z" transform="translate(-96.7 -79.8)" fill="#b8592b"/><path d="M727.7,731.2c-1.5-1.1-4.3-.8-5.7-0.4s-4,1.5-4.8,3.1,1.1,7.9,7.3,6.2S729.2,732.2,727.7,731.2Z" transform="translate(-96.7 -79.8)" fill="#c7663c"/><path d="M756.2,728.4c-2.2-2.3-5.8-2.2-7.6-1.7s-5.1,2.2-5.8,5.2,2.8,15.4,10.7,13.3S758.3,730.8,756.2,728.4Z" transform="translate(-96.7 -79.8)" fill="#895634"/><path d="M756.4,727.2c-2.1-2.2-5.7-2-7.6-1.5s-5.1,2.1-5.9,5.1,2.6,14.6,10.5,12.5S758.5,729.4,756.4,727.2Z" transform="translate(-96.7 -79.8)" fill="#b8592b"/><path d="M754.9,727.4c-1.5-1.1-4.3-.8-5.7-0.4s-4,1.5-4.8,3.1,1.1,7.9,7.3,6.2S756.3,728.5,754.9,727.4Z" transform="translate(-96.7 -79.8)" fill="#c7663c"/><path d="M785.4,722.1c-2.2-2.3-5.8-2.2-7.6-1.7s-5.1,2.2-5.8,5.2,2.8,15.4,10.7,13.3S787.6,724.4,785.4,722.1Z" transform="translate(-96.7 -79.8)" fill="#895634"/><path d="M785.6,720.8c-2.1-2.2-5.7-2-7.6-1.5s-5.1,2.1-5.9,5.1,2.6,14.6,10.5,12.5S787.7,723,785.6,720.8Z" transform="translate(-96.7 -79.8)" fill="#b8592b"/><path d="M784.1,721.1c-1.5-1.1-4.3-.8-5.7-0.4s-4,1.5-4.8,3.1,1.1,7.9,7.3,6.2S785.6,722.1,784.1,721.1Z" transform="translate(-96.7 -79.8)" fill="#c7663c"/><path d="M834.3,761.5c0.3-2.5-3-7.2-4.2-7.3s-5.6,3.6-5.9,6,1.1,2.1,2.5,2.4a17.1,17.1,0,0,1-.8,2.6c-2.8,5.9-11.3,2-11-.4l2.4-18.7a6.4,6.4,0,1,0-5.5-.7l-2.4,18.7c-0.3,2.3-9.5,4-10.7-2.4a17.1,17.1,0,0,1-.1-2.7c1.5,0.1,2.8-.1,3-1.7s-3-7.2-4.2-7.3-5.6,3.6-5.9,6,1.3,2.2,2.8,2.4c-0.2,4.1,1,13.5,16.6,15.5s19.2-6.8,20-10.9C832.5,763.3,834,763.2,834.3,761.5Zm-18.7-24.2a2.8,2.8,0,1,1-3.1,2.4A2.8,2.8,0,0,1,815.6,737.3Z" transform="translate(-96.7 -79.8)" fill="#895634"/><path d="M834.5,759.5c0.3-2.5-3-7.2-4.2-7.3s-5.6,3.6-5.9,6,1.1,2.1,2.5,2.4a17.1,17.1,0,0,1-.8,2.6c-2.8,5.9-11.3,2-11-.4l2.4-18.7a6.4,6.4,0,1,0-5.5-.7l-2.4,18.7c-0.3,2.3-9.5,4-10.7-2.4a17.1,17.1,0,0,1-.1-2.7c1.5,0.1,2.8-.1,3-1.7s-3-7.2-4.2-7.3-5.6,3.6-5.9,6,1.3,2.2,2.8,2.4c-0.2,4.1,1,13.5,16.6,15.5s19.2-6.8,20-10.9C832.7,761.3,834.3,761.2,834.5,759.5Zm-18.7-24.2a2.8,2.8,0,1,1-3.1,2.4A2.8,2.8,0,0,1,815.8,735.3Z" transform="translate(-96.7 -79.8)" fill="#778187"/><path d="M811.5,769.9c-13.9-1.8-15.6-9.5-15.3-13.9v-1.4l-1.4-.2c-1.6-.2-1.6-0.5-1.6-0.7s3-4.1,4.2-4.7,3.1,4.1,2.9,5.6-0.1.5-1.4,0.4h-1.6v1.6a18.7,18.7,0,0,0,.1,2.9,6.8,6.8,0,0,0,6.3,5.7h0c3.3,0.4,7.1-.9,7.4-3.3l2.5-19.6-0.8-.5a4.9,4.9,0,1,1,4.2.5l-0.9.3L813.7,762c-0.2,1.2.6,2.5,2.1,3.5a10.1,10.1,0,0,0,4.3,1.6,6.8,6.8,0,0,0,7.5-3.9,18.7,18.7,0,0,0,.9-2.9l0.3-1.5-1.6-.3c-1.3-.2-1.3-0.5-1.3-0.7s3-4.1,4.2-4.7,3.1,4.1,2.9,5.6-0.1.5-1.7,0.3l-1.4-.2-0.3,1.4C828.9,764.6,825.4,771.7,811.5,769.9Zm4.6-36.7a4.3,4.3,0,1,0,3.7,4.8A4.3,4.3,0,0,0,816.1,733.2Z" transform="translate(-96.7 -79.8)" fill="#848d91"/><path d="M654.9,209.2s-18.7-8.9-46.7-8.9-46.7,8.9-46.7,8.9-1.6,31.8,11,54.3c8.8,13.3,33.5,13.3,35.8,13.3s27,0,35.8-13.2C656.5,241,654.9,209.2,654.9,209.2Z" transform="translate(-96.7 -79.8)" fill="#b97943"/><g opacity="0.5"><path d="M654.8,217.4l-1.7-.2c-7.1-1.6-29.6-5-45-5s-37.9,3.4-45,5l-1.7.3c-0.2-5,0-8.2,0-8.2s18.8-8.9,46.8-8.9,46.8,8.9,46.8,8.9S655,212.4,654.8,217.4Z" transform="translate(-96.7 -79.8)" fill="#895634"/></g><g opacity="0.15" style="mix-blend-mode:screen"><path d="M596.2,200.8L595.7,251l-0.2,24.6c-6.9-1.2-15.1-3.7-20.4-8.9l-0.9-19.5-2-41.9A126.3,126.3,0,0,1,596.2,200.8Z" transform="translate(-96.7 -79.8)" fill="#cc824a"/><g opacity="0.5"><path d="M644.1,205.3l-2.9,61.4c-5.4,5.2-13.7,7.7-20.6,8.9l-0.8-74.8A126.9,126.9,0,0,1,644.1,205.3Z" transform="translate(-96.7 -79.8)" fill="#cc824a"/></g><g opacity="0.5" style="mix-blend-mode:screen"><path d="M595.7,251l-0.2,24.6c-6.9-1.2-15.1-3.7-20.4-8.9l-0.9-19.5Z" transform="translate(-96.7 -79.8)" fill="#cc824a"/></g></g><path d="M660.7,204.5c-1.7-3.9-26.4-10.5-52.6-10.5s-50.9,6.6-52.6,10.5,0.5,10,7.6,8.4,29.6-5,45-5,37.9,3.4,45,5S662.5,208.3,660.7,204.5Z" transform="translate(-96.7 -79.8)" fill="#aa513c"/><g opacity="0.3"><path d="M649,251.8a70.9,70.9,0,0,1-5.1,11.6c-8.8,13.3-33.5,13.3-35.8,13.3s-27,0-35.8-13.2c-5.3-9.5-8.1-20.7-9.5-30.5,9.9,10.8,28,27,46.5,27S640.3,256.8,649,251.8Z" transform="translate(-96.7 -79.8)" fill="#9b633a"/></g><path d="M612.4,195.8c-23.1-.4-44.1,5.5-47.5,8s0.2,4.6,6.3,2.9,32.5-4.5,45-3.7,38.6,6.8,40.8,3.8S638.6,196.3,612.4,195.8Z" transform="translate(-96.7 -79.8)" fill="#af5d4a"/><path d="M371.1,642.3c-22.8-6-37.2,23.4-39.4,37.8,20.4,4.6,54,14.4,54,14.4S398.8,649.6,371.1,642.3Z" transform="translate(-96.7 -79.8)" fill="#f9da78"/><rect x="342.3" y="663.6" width="46.3" height="2.32" transform="translate(-465.4 776.3) rotate(-75.8)" fill="#aa513c"/><rect x="362.6" y="642.9" width="5" height="46.28" transform="translate(-466.9 777) rotate(-75.8)" fill="#aa513c"/><path d="M390.5,692.9c5.3-20.8,6.3-47.7-18.6-54s-36.8,17.8-42,38.6l7.2,1.8s9-40.7,33.3-34.6,12.9,46.3,12.9,46.3Z" transform="translate(-96.7 -79.8)" fill="#aa513c"/><path d="M359.8,686.8L328.9,679c-2-.5-4.1,1.2-4.7,3.7l-0.3,1.1c-0.6,2.5.4,5,2.4,5.5l30.9,7.8,30.9,7.8c2,0.5,4.1-1.2,4.7-3.7l0.3-1.1c0.6-2.5-.4-5-2.4-5.5Z" transform="translate(-96.7 -79.8)" fill="#895634"/><path d="M360.2,685.2l-30.9-7.8c-2-.5-4.1,1.2-4.7,3.7l-0.3,1.1c-0.6,2.5.4,5,2.4,5.5l30.9,7.8,30.9,7.8c2,0.5,4.1-1.2,4.7-3.7l0.3-1.1c0.6-2.5-.4-5-2.4-5.5Z" transform="translate(-96.7 -79.8)" fill="#aa513c"/><path d="M359.9,686.7l-29.2-7.4c-1.9-.5-3.6.1-3.9,1.3v0.5c-0.3,1.2.9,2.6,2.8,3l29.2,7.4,29.2,7.4c1.9,0.5,3.6-.1,3.9-1.3v-0.5c0.3-1.2-.9-2.6-2.8-3Z" transform="translate(-96.7 -79.8)" fill="#af5d4a"/><path d="M289.9,616.2c-25.4-6.7-41.3,26-43.8,42,22.7,5.1,60,16,60,16S320.7,624.3,289.9,616.2Z" transform="translate(-96.7 -79.8)" fill="#f9da78"/><rect x="257.8" y="639.8" width="51.4" height="2.58" transform="translate(-504.2 679.1) rotate(-75.8)" fill="#aa513c"/><rect x="280.4" y="616.8" width="5.6" height="51.45" transform="translate(-505.9 679.8) rotate(-75.8)" fill="#aa513c"/><path d="M311.5,672.4c5.8-23.1,7-53-20.7-60s-40.9,19.8-46.7,42.9l8,2s10-45.3,37-38.4,14.3,51.4,14.3,51.4Z" transform="translate(-96.7 -79.8)" fill="#aa513c"/><path d="M277.4,665.6L243,656.9c-2.2-.6-4.5,1.3-5.2,4.1l-0.3,1.3c-0.7,2.8.5,5.6,2.7,6.1l34.3,8.7,34.3,8.7c2.2,0.6,4.5-1.3,5.2-4.1l0.3-1.3c0.7-2.8-.5-5.6-2.7-6.1Z" transform="translate(-96.7 -79.8)" fill="#895634"/><path d="M277.8,663.9l-34.3-8.7c-2.2-.6-4.5,1.3-5.2,4.1l-0.3,1.3c-0.7,2.8.5,5.6,2.7,6.1l34.3,8.7,34.3,8.7c2.2,0.6,4.5-1.3,5.2-4.1l0.3-1.3c0.7-2.8-.5-5.6-2.7-6.1Z" transform="translate(-96.7 -79.8)" fill="#aa513c"/><path d="M277.4,665.5l-32.5-8.2c-2.1-.5-4,0.1-4.3,1.5l-0.2.6c-0.3,1.3,1.1,2.9,3.1,3.4l32.5,8.2,32.5,8.2c2.1,0.5,4-.1,4.3-1.5l0.2-.6c0.3-1.3-1.1-2.9-3.1-3.4Z" transform="translate(-96.7 -79.8)" fill="#af5d4a"/><path d="M415.3,787.9l-40.8-5.2a3.4,3.4,0,0,1-2.9-3.7l3.8-31.4a3.4,3.4,0,0,1,3.7-2.9l39.1,4.6a3.4,3.4,0,0,1,3,3.6l-2.1,32A3.4,3.4,0,0,1,415.3,787.9Z" transform="translate(-96.7 -79.8)" fill="#934334"/><path d="M415.5,786.3l-40.8-5.2a3.4,3.4,0,0,1-2.9-3.7l3.8-31.4a3.4,3.4,0,0,1,3.7-2.9l39.1,4.6a3.4,3.4,0,0,1,3,3.6l-2.1,32A3.4,3.4,0,0,1,415.5,786.3Z" transform="translate(-96.7 -79.8)" fill="#aa513c"/><path d="M410.4,780.2l-30.1-4.1a2.4,2.4,0,0,1-2.1-2.7l3-22.3a2.4,2.4,0,0,1,2.8-2l28.8,3.6a2.4,2.4,0,0,1,2.2,2.5L413.2,778A2.4,2.4,0,0,1,410.4,780.2Z" transform="translate(-96.7 -79.8)" fill="#895634"/><path d="M414.9,755.1a2.6,2.6,0,0,0-1.6-.8l-29.8-3.7a2.6,2.6,0,0,0-2.4,1v-0.5a2.5,2.5,0,0,1,2.8-2.1l28.8,3.6A2.4,2.4,0,0,1,414.9,755.1Z" transform="translate(-96.7 -79.8)" fill="#77482f"/><circle cx="396.5" cy="764.6" r="10.9" transform="translate(-488.8 1031.2) rotate(-86.3)" fill="#77482f"/><path d="M543.1,797.3L502,795.9a3.4,3.4,0,0,1-3.2-3.4l0.9-31.6a3.4,3.4,0,0,1,3.4-3.3l39.4,1a3.4,3.4,0,0,1,3.3,3.3l0.9,32.1A3.4,3.4,0,0,1,543.1,797.3Z" transform="translate(-96.7 -79.8)" fill="#934334"/><path d="M543.1,795.7L502,794.3a3.4,3.4,0,0,1-3.2-3.4l0.9-31.6a3.4,3.4,0,0,1,3.4-3.3l39.4,1a3.4,3.4,0,0,1,3.3,3.3l0.9,32.1A3.4,3.4,0,0,1,543.1,795.7Z" transform="translate(-96.7 -79.8)" fill="#aa513c"/><path d="M537.5,790.1l-30.3-1.3a2.4,2.4,0,0,1-2.4-2.5l0.9-22.4a2.4,2.4,0,0,1,2.6-2.3l29,1a2.4,2.4,0,0,1,2.4,2.3l0.4,22.8A2.4,2.4,0,0,1,537.5,790.1Z" transform="translate(-96.7 -79.8)" fill="#895634"/><path d="M539.6,764.7a2.6,2.6,0,0,0-1.6-.6l-30-.9a2.6,2.6,0,0,0-2.3,1.2v-0.5a2.5,2.5,0,0,1,2.6-2.3l29,1A2.4,2.4,0,0,1,539.6,764.7Z" transform="translate(-96.7 -79.8)" fill="#77482f"/><circle cx="522.2" cy="775.8" r="10.9" transform="translate(-117.8 -65.2) rotate(-1.6)" fill="#77482f"/><path d="M669.9,794.8l-41.1,1.8a3.4,3.4,0,0,1-3.5-3.2l-1.6-31.6a3.4,3.4,0,0,1,3.2-3.5l39.3-2.1a3.4,3.4,0,0,1,3.5,3l3.4,31.9A3.4,3.4,0,0,1,669.9,794.8Z" transform="translate(-96.7 -79.8)" fill="#934334"/><path d="M669.7,793.3L628.6,795a3.4,3.4,0,0,1-3.5-3.2l-1.6-31.6a3.4,3.4,0,0,1,3.2-3.5l39.3-2.1a3.4,3.4,0,0,1,3.5,3l3.4,31.9A3.4,3.4,0,0,1,669.7,793.3Z" transform="translate(-96.7 -79.8)" fill="#aa513c"/><path d="M663.7,788.1l-30.3,1.1a2.4,2.4,0,0,1-2.5-2.3L630,764.4a2.4,2.4,0,0,1,2.4-2.5l29-1.3a2.4,2.4,0,0,1,2.6,2.1l2.2,22.7A2.4,2.4,0,0,1,663.7,788.1Z" transform="translate(-96.7 -79.8)" fill="#895634"/><path d="M663.9,762.6a2.6,2.6,0,0,0-1.7-.5l-30,1.4a2.6,2.6,0,0,0-2.2,1.4v-0.5a2.5,2.5,0,0,1,2.4-2.5l29-1.3A2.4,2.4,0,0,1,663.9,762.6Z" transform="translate(-96.7 -79.8)" fill="#77482f"/><circle cx="647.4" cy="775.1" r="10.9" transform="translate(-174.4 -7.7) rotate(-6)" fill="#77482f"/></g></svg>