<?xml version="1.0" encoding="utf-8"?>
<!-- Generator: Adobe Illustrator 16.0.0, SVG Export Plug-In . SVG Version: 6.00 Build 0)  -->
<!DOCTYPE svg PUBLIC "-//W3C//DTD SVG 1.1//EN" "http://www.w3.org/Graphics/SVG/1.1/DTD/svg11.dtd">
<svg version="1.1" id="Layer_1" xmlns="http://www.w3.org/2000/svg" xmlns:xlink="http://www.w3.org/1999/xlink" x="0px" y="0px"
	 width="640px" height="480px" viewBox="0 0 640 480" enable-background="new 0 0 640 480" xml:space="preserve">
<title>fin</title>
<g>
	<title>Layer 1</title>
	<g id="svg_13">
		<path id="path580" fill="#636061" d="M26.3,497.226c12.726-11.609,28.772-15.193,40.899-29.429
			c48.352-70.653,86.313-130.327,129.47-195.49c39.032-75.264,77.066-126.656,121.479-174.007
			c29.008-27.38,51.223-46.182,89.713-58.948c17.942-3.928,41.906-6.063,47.317,2.718c-12.423,29.373-19.032,58.097-26.978,99.404
			c-1.074,50.444,10.308,109.357,27.721,167.038c14.074,43.41,32.246,84.795,57.091,126.221
			c28.649,39.33,78.72,48.047,64.427,55.984c-34.68,3.814-164.946,2.035-234.309,1.01c-68.984,0.624-148.905,0.946-218.681,3.806
			C94.299,497.821,30.44,503.048,26.3,497.226z"/>
	</g>
</g>
</svg>
