<?xml version="1.0" encoding="utf-8"?>
<!-- Generator: Adobe Illustrator 16.0.0, SVG Export Plug-In . SVG Version: 6.00 Build 0)  -->
<!DOCTYPE svg PUBLIC "-//W3C//DTD SVG 1.1//EN" "http://www.w3.org/Graphics/SVG/1.1/DTD/svg11.dtd">
<svg version="1.1" id="Layer_1" xmlns="http://www.w3.org/2000/svg" xmlns:xlink="http://www.w3.org/1999/xlink" x="0px" y="0px"
	 width="640px" height="480px" viewBox="0 0 640 480" enable-background="new 0 0 640 480" xml:space="preserve">
<title>fin</title>
<g>
	<title>Layer 1</title>
	<g id="svg_13">
		<path id="path580" fill="#636061" d="M481.805,495.532c-69.777-2.859-149.697-3.182-218.682-3.806
			c-69.362,1.025-199.629,2.805-234.309-1.01c-14.293-7.938,35.777-16.654,64.427-55.984
			c24.845-41.426,43.017-82.811,57.091-126.221c17.413-57.681,28.795-116.594,27.721-167.038
			c-7.945-41.307-14.555-70.031-26.978-99.404c5.411-8.782,29.375-6.646,47.317-2.718c38.49,12.766,60.705,31.568,89.713,58.948
			c44.413,47.351,82.447,98.743,121.479,174.007c43.157,65.163,81.119,124.837,129.471,195.49
			c12.127,14.235,28.173,17.819,40.898,29.429C575.813,503.048,511.955,497.821,481.805,495.532z"/>
	</g>
</g>
</svg>
