<?xml version="1.0" encoding="utf-8"?>
<!-- Generator: Adobe Illustrator 16.0.0, SVG Export Plug-In . SVG Version: 6.00 Build 0)  -->
<!DOCTYPE svg PUBLIC "-//W3C//DTD SVG 1.1//EN" "http://www.w3.org/Graphics/SVG/1.1/DTD/svg11.dtd">
<svg version="1.1" id="svg557" xmlns="http://www.w3.org/2000/svg" xmlns:xlink="http://www.w3.org/1999/xlink" x="0px" y="0px"
	 width="744.094px" height="496.062px" viewBox="0 0 744.094 496.062" enable-background="new 0 0 744.094 496.062"
	 xml:space="preserve">
<g id="g790" transform="translate(11.73454,27.52135)">
	<path id="selection_to_path" stroke="#000000" d="M297,155c3-9,0-25,1-35c1-6,5-12,8-18c2-6,5-14,12-16c-2,6-3,6-5,11l-3,11
		c-2,5-5,7-6,12c-2,7-1,24-1,32c0,2,0,5-2,7c-3,4-12,1-11,11c0,1,0,3,1,4c4,9,20,12,28,16c8,5,6,10,14,15c8,6,29,6,39,5
		c3-1,8-1,11-3c8-3,9-11,17-16c6-3,19-5,25-14c1-1,2-3,2-4c3-11-10-7-13-14c-2-5,1-21,2-26l3,3v9l1,10c11-2,10-15,11-24
		c2-24,2-39-15-58c-10-10-23-18-37-20h-9l-7-1l-8,1c-13,1-22,1-33,7c-8,4-13,9-19,16c-15,16-18,36-15,57C289,141,291,150,297,155z
		 M330,125c14-1,24,9,19,23c-4,9-13,16-23,18c-9,1-13-5-13-13C313,140,315,129,330,125z M386,125c12,0,18,10,19,21c0,3,1,6,1,8
		c-1,7-8,12-15,13c-11,0-24-17-23-27C370,131,378,127,386,125z M368,186l-11-2l-9,3c-1-7,2-17,5-24c1-2,3-6,5-7c4-1,5,4,5,6
		C365,170,368,178,368,186z"/>
	<path id="selection_x5F_to_x5F_path_x23_1" stroke="#000000" d="M407,202c-3,1-7,1-10,3c-10,7-5,24-14,35c-4,5-13,7-20,7
		c-13,0-29-1-35-14c-5-9,2-18-9-29c-2-1-5-4-7-4c-3,0-2,4-2,6l1,20c0,15,4,15,11,24c4,6,7,12,14,15c9,3,19,3,28,2c7,0,11,1,18-3
		s19-20,21-28l1-14C406,212,407,214,407,202z"/>
	<path id="path719" stroke="#000000" d="M590,98c-15,21-31.266,38.794-49,60l-24,27c-20,19-70,56-93,71c-13,9-27,16-41,22
		l-18.26,8.84c3,3,8.58,4.64,13.629,7c3,0,13.631-5.84,16.631-7.84l32-18c6-4,12-9,19-10c-3,7-10,11-17,15l-19,11
		c0,0-19.951,11.37-22.68,13.26c5.469,2.16,13.68,4.64,18.889,6.74c5,0,11.791-5,15.791-7c11-6,25-15,36-23l18-12c14-11,28-23,41-36
		c10-9,20-18,28-29c11-13,18-28,26-43c9-14,12-23,17-38C589,111,592,103,590,98z"/>
	<path id="path725" stroke="#000000" d="M131,93c-3,11,1,24,5,34c9,24,24,45,39,65c9,13,24,29,35,40l12,10l26,23c21,16,60,40,84,51
		l32,14l13,5c15,6,30,10,46,13c9,2,19,5,28,5c-3-11-9-10-18-13l-33-13c-46-19-97-38-133-74c7,0,12,6,17,10c7,5,16,11,24,16
		c22,13,72,36,97,45c10,4,27,11,37,11c8,1,19-4,25-8c-4-4-8-3-14-4l-31-9c-27-7-53-17-78-30l-14-6l-19-12l-23-15l-24-19l-41-32
		l-38-39l-19-22l-20-22L131,93z"/>
	<path id="path731" stroke="#000000" d="M452,340c2,4,6,10,6,15c0,11-13,21-23,20c-4-1-13-6-16,0c-1,2-1,4,0,5c0,4,5,6,9,8
		c11,3,23-1,32-7c7-4,12-11,14-19l2-13c1-4,5-5,10-12c6-8,12-22,20-28c3-2,6-3,10-4c-2-3-4-5-6-8c-2-1-4-3-6-3c-3-1-7-1-10,1
		c-14,7-11,20-19,30C469,333,462,337,452,340z"/>
	<path id="path737" stroke="#000000" d="M484,353c7,3,13,2,20,2l15,1c7,0,9-4,12-10c1-2,2-6,0-8s-6-2-9-2l-17,1c-3,0-8,0-11,1
		C489,341,485,348,484,353z"/>
	<path id="path743" stroke="#000000" d="M538,367c-5-2-8-4-11-8c-1,1-2,1-3,2C523,366,536,378,538,367z"/>
	<path id="path744" stroke="#000000" d="M531,333l8,5c-2,4-7,12-6,17c1,10,15,10,21,4c7-8,7-20-3-26C545,330,538,331,531,333z"/>
	<path id="selection_x5F_to_x5F_path_x23_5" stroke="#000000" d="M172,361l1,1c8-2,13-5,14-13C181,350,175,356,172,361z"/>
	<path id="selection_x5F_to_x5F_path_x23_4" stroke="#000000" d="M179,324c-3-2-6-3-10-3c-3,0-6,0-9,1c-10,4-11,20-3,27
		c4,4,14,6,18,1c4-4,3-9,1-14c-1-3-3-7-1-9C176,325,178,325,179,324z"/>
	<path id="selection_x5F_to_x5F_path_x23_3" stroke="#000000" d="M178,328c1,3,6,15,8,17c3,2,6,2,9,2l18-1h13c0-3,0-6-1-8
		c-3-8-14-12-22-12l-9,1C188,327,183,326,178,328z"/>
	<path id="selection_x5F_to_x5F_path_x23_2" stroke="#000000" d="M197,296c19,5,19,21,27,32c3,4,11,10,12,14c1,3,0,4,1,11
		c2,9,8,18,16,23c9,6,17,10,28,7c6-2,12-6,9-13s-14,0-21-2c-7-3-15-13-15-21l4-14c-11-4-24-13-29-24c-3-7-3-17-8-22
		C212,280,200,286,197,296z"/>
	<path id="path758" stroke="#000000" d="M245,319c3,4,5,5,9,7c14,8,23,2,37-1l29-9c-3.84-2.58-12.42-7.95-16-10l-19,5L245,319z"/>
	<path id="path759" stroke="#000000" d="M259,348c26,0,50-8,75-14c0,0,11-5.206,14.676-5.206c-3.47-2.529-17.622-7.638-19.836-9.634
		c-3,0.89-14.84,4.84-18.84,5.84l-25,7l-12,3C266,338,261,339,259,348z"/>
	<path id="selection_x5F_to_x5F_path_x23_8" stroke="#000000" d="M336,233c0,2.5,0.25,5.535,1.25,7.035s4.755,1.639,5.75,0.965
		c0.808-0.82-0.75-4.75-1.625-5.875S339,233.5,336,233z"/>
	<path id="selection_x5F_to_x5F_path_x23_7" stroke="#000000" d="M344,234l1,5c0,1,1,3,2,4c4,2,6-8,3-9C348,233,346,234,344,234z"/>
	<path id="selection_x5F_to_x5F_path_x23_6" stroke="#000000" d="M356,235c-3,2-3.087,5.721-1.962,7.596S357.5,244.5,359,244
		c1-0.5,2.5-3,2.625-5.25S360.5,234.5,356,235z"/>
	<path id="path784" stroke="#000000" d="M345,222c2.703,1.395,7.174-0.087,7.174-0.087L352,216c-1-4-4-5-6-3
		C345,215,345,220,345,222z"/>
	<path id="path785" stroke="#000000" d="M360,212c-1,0-4.133-0.523-5.133,0.477C352.913,214.436,352,221,355,223
		c1.872,0.477,5,0.913,6-3.087V217C361,217,360.959,213.744,360,212z"/>
	<path id="path786" stroke="#000000" d="M370,244c0.912,0.395,2-1,3-2c7-7-7.564-12.61-5-2C368,240,368.953,243.826,370,244z"/>
	<path id="path787" stroke="#000000" d="M341.738,211c-1-0.349-2.738,0-3.738,0c-7.779,3.523,2,17,5,8c0-1,0-2,0-3
		C343,216,342.436,211.349,341.738,211z"/>
	<path id="path788" stroke="#000000" d="M364,212c0,0-1.698,10.128-1,11c1.308,0.697,5.343,0.523,6.826-0.523
		c0-3,0.184-6.503-0.42-8.333C368.804,212.311,367.5,212.5,364,212z"/>
	<path id="path789" stroke="#000000" d="M373.565,210.826L373,216c0,3,0.65,8.826,4.65,5.826c0.5-0.5,1.852-6.448,1.297-9.162
		C377.918,211.21,376.035,211.064,373.565,210.826z"/>
</g>
</svg>
