<?xml version="1.0" encoding="utf-8"?>
<!-- Generator: Adobe Illustrator 16.0.0, SVG Export Plug-In . SVG Version: 6.00 Build 0)  -->
<!DOCTYPE svg PUBLIC "-//W3C//DTD SVG 1.1//EN" "http://www.w3.org/Graphics/SVG/1.1/DTD/svg11.dtd">
<svg version="1.1" id="Layer_1" xmlns="http://www.w3.org/2000/svg" xmlns:xlink="http://www.w3.org/1999/xlink" x="0px" y="0px"
	 width="2000px" height="300px" viewBox="0 0 2000 300" enable-background="new 0 0 2000 300" xml:space="preserve">
<path fill="#4C4CCC" d="M2000,92.593V300H0l-95.355-198.407c0,0,108.291,62.21,152.993,63.94
	c57.913,2.242,131.15-43.773,188.99-47.441c57.323-3.633,98.599,68.276,155.992,65.997c58.164-2.31,117.312-61.899,175.491-59.997
	c71.479,2.338,95.028-52.707,166.492-55.497c27.672-1.081,180.932,90.537,285.942,102.946
	c107.354,12.688,190.554-97.295,224.032-95.447c61.497-28.499,130.08,83.682,239.986,80.996
	c50.131-1.225,188.039-124.73,241.488-125.994c70.201-1.658,183.893,67.968,305.984,134.433"/>
</svg>
