<?xml version="1.0" encoding="utf-8"?>
<!-- Generator: Adobe Illustrator 16.0.0, SVG Export Plug-In . SVG Version: 6.00 Build 0)  -->
<!DOCTYPE svg PUBLIC "-//W3C//DTD SVG 1.1//EN" "http://www.w3.org/Graphics/SVG/1.1/DTD/svg11.dtd">
<svg version="1.1" id="Layer_1" xmlns="http://www.w3.org/2000/svg" xmlns:xlink="http://www.w3.org/1999/xlink" x="0px" y="0px"
	 width="2000px" height="300px" viewBox="0 0 2000 300" enable-background="new 0 0 2000 300" xml:space="preserve">
<path fill="#25259E" d="M2000,124.751V300H0V123.07c0,0,101.431,44.29,146.133,46.02c57.913,2.242,183.648-140.325,241.488-143.993
	c57.323-3.633,160.096,114.773,217.489,112.494c58.163-2.309,186.309-79.899,244.486-77.996
	c71.479,2.338,192.524,80.786,263.987,77.996c55.962-2.186,158.688-73.256,214.489-77.996
	c63.3-5.377,195.977,104.465,259.485,102.913c50.131-1.225,155.041-106.149,208.49-107.413
	c70.201-1.658,142.948,28.439,265.041,94.904"/>
</svg>
