<?xml version="1.0" encoding="utf-8"?>
<!-- Generator: Adobe Illustrator 16.0.0, SVG Export Plug-In . SVG Version: 6.00 Build 0)  -->
<!DOCTYPE svg PUBLIC "-//W3C//DTD SVG 1.1//EN" "http://www.w3.org/Graphics/SVG/1.1/DTD/svg11.dtd">
<svg version="1.1" id="Layer_1" xmlns="http://www.w3.org/2000/svg" xmlns:xlink="http://www.w3.org/1999/xlink" x="0px" y="0px"
	 width="2000px" height="300px" viewBox="0 0 2000 300" enable-background="new 0 0 2000 300" xml:space="preserve">
<path fill="#4F1215" d="M2067.537,170.791L2000,300H0L-105.854,17.597c0,0,108.291,98.764,152.992,100.495
	c57.913,2.242,108.652-69.828,166.492-73.496c57.323-3.633,128.597,92.275,185.99,89.996c58.164-2.309,97.813-78.398,155.992-76.496
	c67.562,2.21,151.145,64.438,226.489,61.497c27.672-1.081,119.978-90.418,224.989-78.009
	c44.146,5.217,102.636,72.471,178.491,93.008c108.613,29.406,232.273-91.415,296.985-92.996
	c50.131-1.225,206.037,85.26,259.486,83.996c70.201-1.658,182.393-103.963,304.485-37.498"/>
</svg>
