<?xml version="1.0" encoding="utf-8"?>
<!-- Generator: Adobe Illustrator 16.0.0, SVG Export Plug-In . SVG Version: 6.00 Build 0)  -->
<!DOCTYPE svg PUBLIC "-//W3C//DTD SVG 1.1//EN" "http://www.w3.org/Graphics/SVG/1.1/DTD/svg11.dtd">
<svg version="1.1" id="Layer_1" xmlns="http://www.w3.org/2000/svg" xmlns:xlink="http://www.w3.org/1999/xlink" x="0px" y="0px"
	 width="2000px" height="300px" viewBox="0 0 2000 300" enable-background="new 0 0 2000 300" xml:space="preserve">
<path fill="#12124F" d="M2000,124.751V300H0V123.07c0,0,124.531,56.409,169.232,58.139c57.913,2.243,166.579-54.472,224.419-58.139
	c57.323-3.634,170.514,31.348,227.907,29.071c58.164-2.31,169.729-49.579,227.907-47.676
	c71.479,2.338,204.119,79.534,275.582,76.744c55.962-2.186,154.661-72.003,210.465-76.744c63.301-5.377,186.49,47.087,250,45.535
	c50.131-1.225,211.629-32.744,211.629-32.744S1939,83.535,2061.093,150"/>
</svg>
