<?xml version="1.0" encoding="utf-8"?>
<!-- Generator: Adobe Illustrator 16.0.0, SVG Export Plug-In . SVG Version: 6.00 Build 0)  -->
<!DOCTYPE svg PUBLIC "-//W3C//DTD SVG 1.1//EN" "http://www.w3.org/Graphics/SVG/1.1/DTD/svg11.dtd">
<svg version="1.1" id="Layer_1" xmlns="http://www.w3.org/2000/svg" xmlns:xlink="http://www.w3.org/1999/xlink" x="0px" y="0px"
	 width="2000px" height="300px" viewBox="0 0 2000 300" enable-background="new 0 0 2000 300" xml:space="preserve">
<path fill="#3535AA" d="M2000,92.593V300H0V123.07c0,0,95.432-50.206,140.133-48.476c57.913,2.242,170.149,108.663,227.989,104.995
	c57.323-3.633,116.598-98.216,173.991-100.495c58.164-2.309,117.312,115.092,175.49,116.994
	c71.479,2.338,113.028-124.703,184.491-127.493c27.672-1.081,113.979,68.996,218.989,81.405
	c107.355,12.688,229.009-102.753,262.487-100.904c61.497-28.499,119.581,53.683,229.487,50.997
	c50.131-1.225,143.041,103.259,196.49,101.995c70.201-1.658,129.449-118.554,251.542-52.089"/>
</svg>
