<?xml version="1.0" encoding="utf-8"?>
<!-- Generator: Adobe Illustrator 16.0.0, SVG Export Plug-In . SVG Version: 6.00 Build 0)  -->
<!DOCTYPE svg PUBLIC "-//W3C//DTD SVG 1.1//EN" "http://www.w3.org/Graphics/SVG/1.1/DTD/svg11.dtd">
<svg version="1.1" id="Layer_1" xmlns="http://www.w3.org/2000/svg" xmlns:xlink="http://www.w3.org/1999/xlink" x="0px" y="0px"
	 width="2000px" height="300px" viewBox="0 0 2000 300" enable-background="new 0 0 2000 300" xml:space="preserve">
<path fill="#1C1C76" d="M2000,124.751V300H0V123.07c0,0,115.43-52.706,160.132-50.975c57.913,2.243,177.648,117.598,235.488,113.93
	c57.323-3.633,164.596-65.154,221.989-67.434c58.164-2.309,207.308,29.504,265.486,31.407
	c71.479,2.338,167.025-36.117,238.488-38.907c55.962-2.186,166.186,31.739,221.988,26.999c63.3-5.377,176.479-64.486,239.988-66.038
	c50.131-1.225,159.539,43.302,212.988,42.039c70.201-1.658,142.45-30.558,264.543,35.907"/>
</svg>
